<?xml version="1.0" standalone="no"?>
<!DOCTYPE svg PUBLIC "-//W3C//DTD SVG 1.1//EN" "http://www.w3.org/Graphics/SVG/1.1/DTD/svg11.dtd" >
<svg xmlns="http://www.w3.org/2000/svg" xmlns:xlink="http://www.w3.org/1999/xlink" version="1.1">
<metadata>
Created by FontForge 20201107 at Fri Mar 22 13:18:21 2024
 By 
Copyright (c) 2021 by Adnan Qureshi. All rights reserved.
</metadata>
<defs>
<font id="EnnVisions-Bold" horiz-adv-x="452" >
  <font-face 
    font-family="EnnVisions"
    font-weight="700"
    font-stretch="normal"
    units-per-em="2048"
    panose-1="2 1 8 3 3 2 1 6 3 3"
    ascent="1638"
    descent="-410"
    x-height="1059"
    cap-height="1434"
    bbox="-137 -557 4289 1995"
    underline-thickness="102"
    underline-position="-255"
    unicode-range="U+000D-FB02"
  />
<missing-glyph horiz-adv-x="1052" 
d="M123 -205v1741h807v-1741h-807z" />
    <glyph glyph-name=".notdef" horiz-adv-x="1052" 
d="M123 -205v1741h807v-1741h-807z" />
    <glyph glyph-name=".null" horiz-adv-x="0" 
 />
    <glyph glyph-name="nonmarkingreturn" horiz-adv-x="682" 
 />
    <glyph glyph-name="NULL" horiz-adv-x="409" 
 />
    <glyph glyph-name="NULL" horiz-adv-x="409" 
 />
    <glyph glyph-name="CR.001" unicode="&#xd;" horiz-adv-x="409" 
 />
    <glyph glyph-name="space" unicode=" " horiz-adv-x="409" 
 />
    <glyph glyph-name="exclam" unicode="!" horiz-adv-x="450" 
d="M340 391h-227l-21 1043h266zM225 276q62 0 105 -43t43 -104t-43 -103t-105 -42t-104.5 42t-42.5 103t43 104t104 43z" />
    <glyph glyph-name="quotedbl" unicode="&#x22;" horiz-adv-x="843" 
d="M139 948l-18 551h244l-17 -551h-209zM500 948l-19 551h244l-16 -551h-209z" />
    <glyph glyph-name="numbersign" unicode="#" horiz-adv-x="1431" 
d="M137 0l117 406h-201v190h254l70 242h-221v192h276l115 404h235l-114 -404h274l115 404h237l-114 -404h196v-192h-252l-69 -242h219v-190h-273l-116 -406h-238l117 406h-275l-116 -406h-236zM543 596h274l70 242h-275z" />
    <glyph glyph-name="dollar" unicode="$" horiz-adv-x="1212" 
d="M512 612l-59 17q-185 48 -274 142t-89 247q0 160 118.5 266.5t303.5 124.5v158h188v-168q170 -32 279.5 -144t132.5 -276h-260q-30 138 -152 188v-342l70 -18q192 -49 278.5 -141t86.5 -246q0 -158 -117.5 -268t-317.5 -127v-158h-188v168q-181 32 -296 147t-128 281h256
q11 -74 54 -126t114 -75v350zM348 1028q0 -64 43.5 -105t120.5 -59v324q-74 -12 -119 -54t-45 -106zM700 573v-327q85 10 131 51.5t46 105.5q0 60 -47.5 105.5t-129.5 64.5z" />
    <glyph glyph-name="percent" unicode="%" horiz-adv-x="1728" 
d="M426 731q-153 0 -258 106t-105 259q0 143 106 250.5t257 107.5q150 0 255 -107.5t105 -250.5q0 -152 -106 -258.5t-254 -106.5zM578 0h-201l770 1434h203zM426 903q78 0 132 57.5t54 137.5q0 72 -56.5 128t-129.5 56t-129.5 -56t-56.5 -128q0 -80 54 -137.5t132 -57.5z
M1300 702q152 0 258.5 -106t106.5 -258q0 -144 -106 -251t-259 -107q-150 0 -254 107t-104 251q0 152 105 258t253 106zM1300 530q-75 0 -129.5 -57t-54.5 -135q0 -74 55.5 -130t128.5 -56q76 0 132.5 56t56.5 130q0 78 -56 135t-133 57z" />
    <glyph glyph-name="ampersand" unicode="&#x26;" horiz-adv-x="1345" 
d="M952 111l-26 28q-165 -168 -406 -168q-211 0 -346 114.5t-135 291.5q0 135 66.5 228t218.5 173q-134 152 -134 299q0 166 115.5 272.5t298.5 106.5q178 0 291 -100t113 -254q0 -117 -67.5 -206t-215.5 -167l199 -209l200 299l199 -121l-238 -348l56 -59q51 -51 110 -51
h86v-240h-141q-75 0 -131 25.5t-113 85.5zM559 905l10 -10l27 12q80 39 114.5 80t34.5 100q0 63 -40.5 104.5t-102.5 41.5q-66 0 -105.5 -40t-39.5 -106q0 -77 102 -182zM315 387q0 -78 63 -129t161 -51q133 0 231 98l-285 301q-90 -44 -130 -96.5t-40 -122.5z" />
    <glyph glyph-name="quotesingle" unicode="'" horiz-adv-x="483" 
d="M139 948l-18 551h244l-17 -551h-209z" />
    <glyph glyph-name="parenleft" unicode="(" horiz-adv-x="825" 
d="M350 682q0 -268 114 -474.5t314 -313.5l-127 -183q-260 135 -404.5 391t-144.5 580q0 322 144.5 578t404.5 393l127 -183q-200 -107 -314 -313.5t-114 -474.5z" />
    <glyph glyph-name="parenright" unicode=")" horiz-adv-x="825" 
d="M475 682q0 268 -114 474.5t-314 313.5l127 183q260 -135 404.5 -391t144.5 -580q0 -322 -144.5 -578t-404.5 -393l-127 183q200 107 314 313.5t114 474.5z" />
    <glyph glyph-name="asterisk" unicode="*" horiz-adv-x="929" 
d="M764 762l-217 137l2 -246h-166l2 246l-219 -137l-86 145l229 137l-227 140l84 143l219 -137l-2 244h166l-2 -242l217 135l88 -143l-231 -140l231 -137z" />
    <glyph glyph-name="plus" unicode="+" horiz-adv-x="1116" 
d="M664 268h-209v363h-363v209h363v354h209v-354h360v-209h-360v-363z" />
    <glyph glyph-name="comma" unicode="," 
d="M86 -309v129q60 10 98.5 46t38.5 79q0 18 -15.5 31.5t-37.5 25t-44.5 26t-38 43t-15.5 68.5q0 56 40.5 102t104.5 46q82 0 130 -62t48 -166q0 -139 -85 -241t-224 -127z" />
    <glyph glyph-name="hyphen" unicode="-" horiz-adv-x="866" 
d="M61 500v225h742v-225h-742z" />
    <glyph glyph-name="period" unicode="." 
d="M225 287q66 0 111 -44t45 -110t-45 -109.5t-111 -43.5t-110.5 43.5t-44.5 109.5t44.5 110t110.5 44z" />
    <glyph glyph-name="slash" unicode="/" horiz-adv-x="911" 
d="M279 0h-267l623 1434h266z" />
    <glyph glyph-name="zero" unicode="0" horiz-adv-x="1296" 
d="M86 537v362q0 255 154 409t409 154q254 0 407.5 -153.5t153.5 -409.5v-362q0 -257 -153.5 -411.5t-407.5 -154.5q-255 0 -409 154t-154 412zM946 543v350q0 159 -78 247.5t-219 88.5t-220 -89t-79 -247v-350q0 -159 79 -248.5t220 -89.5t219 89t78 249z" />
    <glyph glyph-name="one" unicode="1" horiz-adv-x="1005" 
d="M961 236v-236h-916v236h324v962h-275v236h541v-1198h326z" />
    <glyph glyph-name="two" unicode="2" horiz-adv-x="1110" 
d="M1026 1020q0 -122 -52.5 -225t-182.5 -238l-322 -326h567v-231h-970v162l542 559q84 84 116 143.5t32 130.5q0 100 -70 165t-178 65q-90 0 -163 -42t-146 -134l-174 161q199 246 512 246q215 0 352 -122.5t137 -313.5z" />
    <glyph glyph-name="three" unicode="3" horiz-adv-x="1169" 
d="M567 1456q203 0 342.5 -121.5t139.5 -296.5q0 -86 -42 -160.5t-116 -125.5q96 -52 152.5 -139t56.5 -189q0 -123 -66.5 -226t-188 -165t-272.5 -62q-179 0 -309.5 60t-228.5 174l182 166q147 -174 340 -174q120 0 195 63t75 156q0 86 -62.5 145.5t-168.5 59.5h-215v225
h184q98 0 154.5 53t56.5 137q0 85 -64.5 140t-168.5 55q-91 0 -164 -43.5t-141 -122.5l-175 154q100 116 221 176.5t283 60.5z" />
    <glyph glyph-name="four" unicode="4" horiz-adv-x="1271" 
d="M788 0v350h-727v197l650 887h344v-848h174v-236h-174v-350h-267zM369 586h419v575z" />
    <glyph glyph-name="five" unicode="5" horiz-adv-x="1183" 
d="M623 930q202 0 339.5 -130t137.5 -321q0 -142 -70 -258.5t-193.5 -183t-273.5 -66.5q-318 0 -520 236l184 168q144 -178 330 -178q117 0 193.5 74.5t76.5 187.5q0 109 -75 177.5t-193 68.5q-72 0 -127.5 -22t-112.5 -73l-215 33l31 791h869v-236h-635l-13 -336
q116 68 267 68z" />
    <glyph glyph-name="six" unicode="6" horiz-adv-x="1245" 
d="M649 -18q-259 0 -413 186t-154 500v53q0 343 157 544t425 201q145 0 258.5 -52.5t207.5 -158.5l-176 -159q-126 145 -290 145q-130 0 -222 -114.5t-96 -301.5q131 140 342 140q130 0 242 -64.5t178 -173.5t66 -235q0 -106 -41 -200.5t-111 -162.5t-167.5 -107.5
t-205.5 -39.5zM641 207q118 0 198.5 77.5t80.5 192.5t-81 193t-198 78q-116 0 -195 -78t-79 -193t79 -192.5t195 -77.5z" />
    <glyph glyph-name="seven" unicode="7" horiz-adv-x="1159" 
d="M1116 1237l-657 -1237h-309l665 1198h-772v236h1073v-197z" />
    <glyph glyph-name="eight" unicode="8" horiz-adv-x="1232" 
d="M1155 414q0 -126 -71 -227.5t-194 -158.5t-274 -57q-231 0 -385.5 126t-154.5 317q0 107 58.5 193.5t158.5 137.5q-79 52 -123.5 128t-44.5 167q0 177 141 296.5t350 119.5t349.5 -119.5t140.5 -296.5q0 -90 -44.5 -167t-121.5 -128q100 -50 157.5 -137t57.5 -194z
M616 1231q-97 0 -159 -53.5t-62 -139.5q0 -84 64 -139t157 -55q92 0 157 55t65 139q0 85 -63.5 139t-158.5 54zM616 625q-113 0 -189.5 -62t-76.5 -155q0 -92 75.5 -151.5t190.5 -59.5q113 0 189 59.5t76 151.5q0 93 -77 155t-188 62z" />
    <glyph glyph-name="nine" unicode="9" horiz-adv-x="1245" 
d="M596 1452q259 0 413 -186t154 -500v-53q0 -343 -156.5 -544.5t-424.5 -201.5q-280 0 -467 211l176 160q126 -145 291 -145q130 0 221.5 114t95.5 301q-130 -139 -342 -139q-130 0 -242 64.5t-177.5 173.5t-65.5 235q0 141 69.5 258.5t190 184.5t264.5 67zM604 1227
q-117 0 -197.5 -78t-80.5 -193t80.5 -192.5t197.5 -77.5q116 0 195.5 77.5t79.5 192.5t-79.5 193t-195.5 78z" />
    <glyph glyph-name="colon" unicode=":" 
d="M225 287q66 0 111 -44t45 -110t-45 -109.5t-111 -43.5t-110.5 43.5t-44.5 109.5t44.5 110t110.5 44zM225 1090q66 0 111 -44t45 -110t-45 -110t-111 -44t-110.5 44t-44.5 110t44.5 110t110.5 44z" />
    <glyph glyph-name="semicolon" unicode=";" 
d="M86 -309v129q60 10 98.5 46t38.5 79q0 18 -15.5 31.5t-37.5 25t-44.5 26t-38 43t-15.5 68.5q0 56 40.5 102t104.5 46q82 0 130 -62t48 -166q0 -139 -85 -241t-224 -127zM225 1090q66 0 111 -44t45 -110t-45 -110t-111 -44t-110.5 44t-44.5 110t44.5 110t110.5 44z" />
    <glyph glyph-name="less" unicode="&#x3c;" horiz-adv-x="843" 
d="M801 1059l-479 -524l485 -535h-283l-489 530l489 529h277z" />
    <glyph glyph-name="equal" unicode="=" horiz-adv-x="1110" 
d="M1018 995v-184h-926v184h926zM1018 641v-186h-926v186h926z" />
    <glyph glyph-name="greater" unicode="&#x3e;" horiz-adv-x="843" 
d="M10 0l479 524l-485 535h283l489 -531l-489 -528h-277z" />
    <glyph glyph-name="question" unicode="?" horiz-adv-x="1048" 
d="M993 1026q0 -161 -106 -282t-266 -138l-7 -213h-215l-8 414h115q94 0 158.5 59t64.5 146q0 91 -65 152t-160 61q-162 0 -266 -138l-193 140q183 233 465 233q205 0 344 -125.5t139 -308.5zM506 276q61 0 103 -42.5t42 -104.5q0 -61 -41.5 -103t-103.5 -42t-105 42
t-43 103t43 104t105 43z" />
    <glyph glyph-name="at" unicode="@" horiz-adv-x="1669" 
d="M809 137q-154 0 -261.5 106t-107.5 255q0 152 107 258t262 106q118 0 205 -69v51h190v-449q0 -45 28.5 -73.5t80.5 -28.5q64 0 103.5 70t39.5 186q0 162 -77 293t-220 206.5t-328 75.5q-125 0 -237.5 -47.5t-192.5 -129t-127 -195t-47 -240.5q0 -169 79 -310
t215.5 -221.5t301.5 -80.5q236 0 414 151l98 -98q-210 -184 -499 -184q-155 0 -294.5 58.5t-240.5 157.5t-160 236.5t-59 290.5t60 290.5t161.5 236.5t243 157.5t297.5 58.5q220 0 394 -93.5t269 -253.5t95 -355q0 -188 -91 -295.5t-221 -107.5q-152 0 -225 102
q-48 -54 -114.5 -84.5t-141.5 -30.5zM823 307q78 0 134.5 56.5t56.5 134.5q0 81 -56 136.5t-135 55.5t-135.5 -55.5t-56.5 -136.5q0 -78 57 -134.5t135 -56.5z" />
    <glyph glyph-name="A" unicode="A" horiz-adv-x="1466" 
d="M872 1434l605 -1434h-295l-142 350h-622l-142 -350h-286l604 1434h278zM512 590h432l-215 536z" />
    <glyph glyph-name="B" unicode="B" horiz-adv-x="1247" 
d="M102 0v1434h566q178 0 301 -110.5t123 -270.5q0 -86 -43.5 -161t-118.5 -126q118 -48 187 -142.5t69 -215.5q0 -170 -126.5 -289t-309.5 -119h-648zM641 1202h-262v-352h262q76 0 124 51t48 125q0 76 -47.5 126t-124.5 50zM379 231h323q91 0 147 55t56 142
q0 86 -56 142.5t-147 56.5h-323v-396z" />
    <glyph glyph-name="C" unicode="C" horiz-adv-x="1480" 
d="M72 719q0 203 98 372.5t273.5 269t392.5 99.5q190 0 348.5 -82.5t267.5 -226.5l-215 -158q-70 99 -175.5 157t-221.5 58q-135 0 -246.5 -61.5t-176.5 -174t-65 -253.5q0 -109 38.5 -202t105 -156t155.5 -98.5t189 -35.5q124 0 230.5 56.5t172.5 156.5l215 -157
q-106 -144 -265 -227t-351 -83q-166 0 -310 58t-244.5 157.5t-158 237t-57.5 293.5z" />
    <glyph glyph-name="D" unicode="D" horiz-adv-x="1484" 
d="M1413 717q0 -148 -58.5 -281t-157.5 -228.5t-236.5 -151.5t-290.5 -56h-568v1434h568q153 0 290.5 -56t236.5 -151.5t157.5 -228.5t58.5 -281zM641 1192h-262v-950h262q204 0 346.5 138t142.5 337q0 200 -142 337.5t-347 137.5z" />
    <glyph glyph-name="E" unicode="E" horiz-adv-x="1099" 
d="M102 0v1434h904v-242h-627v-354h606v-236h-606v-360h627v-242h-904z" />
    <glyph glyph-name="F" unicode="F" horiz-adv-x="1099" 
d="M379 0h-277v1434h904v-242h-627v-356h606v-236h-606v-600z" />
    <glyph glyph-name="G" unicode="G" horiz-adv-x="1605" 
d="M821 770h719v-111q0 -306 -197 -497t-507 -191q-333 0 -551 215q-217 217 -217 529t215 530q217 217 536 217q199 0 365.5 -90t259.5 -244l-242 -139q-52 89 -156 144t-229 55q-206 0 -338 -135q-131 -131 -131 -338q0 -203 133 -336q134 -131 357 -131q163 0 270.5 71.5
t146.5 200.5h-434v250z" />
    <glyph glyph-name="H" unicode="H" horiz-adv-x="1382" 
d="M377 0h-277v1434h277v-594h629v594h276v-1434h-276v598h-629v-598z" />
    <glyph glyph-name="I" unicode="I" horiz-adv-x="479" 
d="M379 0h-277v1434h277v-1434z" />
    <glyph glyph-name="J" unicode="J" horiz-adv-x="1026" 
d="M2 117l162 198q45 -45 106.5 -70.5t126.5 -25.5q117 0 188.5 83t71.5 218v914h277v-963q0 -221 -146 -361.5t-374 -140.5q-127 0 -233 39t-179 109z" />
    <glyph glyph-name="K" unicode="K" horiz-adv-x="1290" 
d="M102 1434h277v-609l563 609h346l-670 -709l687 -725h-369l-557 600v-600h-277v1434z" />
    <glyph glyph-name="L" unicode="L" horiz-adv-x="1069" 
d="M1006 242v-242h-904v1434h277v-1192h627z" />
    <glyph glyph-name="M" unicode="M" horiz-adv-x="1636" 
d="M1245 1434h291v-1434h-281v930l-403 -666h-33l-403 664v-928h-283v1434h291l412 -678z" />
    <glyph glyph-name="N" unicode="N" horiz-adv-x="1486" 
d="M358 0h-256v1434h304l724 -1055l-2 1055h256v-1434h-303l-725 1055z" />
    <glyph glyph-name="O" unicode="O" horiz-adv-x="1669" 
d="M72 717q0 204 100 374.5t276 269.5t388 99q158 0 299 -58.5t242.5 -157.5t160.5 -236.5t59 -290.5t-59 -290.5t-160.5 -237t-242.5 -158t-299 -58.5q-159 0 -301 58.5t-243.5 158t-160.5 237t-59 290.5zM354 717q0 -208 140 -349t342 -141q203 0 341 140.5t138 349.5
q0 136 -63 248.5t-173 176.5t-243 64q-202 0 -342 -141.5t-140 -347.5z" />
    <glyph glyph-name="P" unicode="P" horiz-adv-x="1234" 
d="M102 0v1434h609q188 0 316 -127t128 -312q0 -122 -58 -223.5t-160 -160t-226 -58.5h-332v-553h-277zM686 1192h-307v-404h307q86 0 138.5 57.5t52.5 145.5t-52.5 144.5t-138.5 56.5z" />
    <glyph glyph-name="Q" unicode="Q" horiz-adv-x="1669" 
d="M72 717q0 204 100 374.5t276 269.5t388 99q158 0 299 -58.5t242.5 -157.5t160.5 -236.5t59 -290.5t-57 -288.5t-162 -235.5l129 -156l-198 -162l-142 170q-153 -72 -331 -72q-159 0 -301 58.5t-243.5 158t-160.5 237t-59 290.5zM354 717q0 -208 140 -349t342 -141
q88 0 159 27l-143 172l201 162l153 -187q109 135 109 316q0 136 -63 248.5t-173 176.5t-243 64q-202 0 -342 -141.5t-140 -347.5z" />
    <glyph glyph-name="R" unicode="R" horiz-adv-x="1251" 
d="M1186 0h-305l-289 498h-215v-498h-283v1434h574q198 0 338 -140q139 -139 139 -336q0 -133 -76 -246.5t-201 -170.5zM668 1169h-291v-424h291q80 0 137 62.5t57 150.5q0 87 -57 149t-137 62z" />
    <glyph glyph-name="S" unicode="S" horiz-adv-x="1218" 
d="M623 -29q-211 0 -357 94t-207 261l242 141q83 -219 330 -219q114 0 171.5 41t57.5 110q0 77 -67 117q-66 42 -242 92q-103 31 -167.5 59.5t-129.5 73.5q-135 101 -135 295q0 197 137 310q137 116 334 116q172 0 305 -84t207 -237l-238 -137q-85 184 -274 184
q-87 0 -138 -40t-51 -104q0 -66 56 -110q59 -41 217 -90l98 -33q18 -5 92 -35q59 -21 90 -43q39 -25 78.5 -59.5t57.5 -67.5q53 -84 53 -203q0 -196 -146 -315q-144 -117 -374 -117z" />
    <glyph glyph-name="T" unicode="T" horiz-adv-x="1241" 
d="M41 1192v242h1159v-242h-442v-1192h-277v1192h-440z" />
    <glyph glyph-name="U" unicode="U" horiz-adv-x="1323" 
d="M668 -29q-241 0 -394 135t-153 363v965h280v-942q0 -116 67 -180t200 -64t199.5 64t66.5 180v942h283v-965q0 -227 -154 -363q-153 -135 -395 -135z" />
    <glyph glyph-name="V" unicode="V" horiz-adv-x="1466" 
d="M594 0l-604 1434h305l444 -1106l445 1106h293l-605 -1434h-278z" />
    <glyph glyph-name="W" unicode="W" horiz-adv-x="2078" 
d="M1167 1434l340 -1035l265 1035h286l-407 -1434h-279l-332 1016l-333 -1016h-279l-408 1434h297l265 -1037l340 1037h245z" />
    <glyph glyph-name="X" unicode="X" horiz-adv-x="1415" 
d="M-10 0l553 733l-531 701h344l349 -482l352 482h332l-525 -695l561 -739h-346l-379 522l-376 -522h-334z" />
    <glyph glyph-name="Y" unicode="Y" horiz-adv-x="1380" 
d="M827 0h-276v598l-561 836h336l368 -576l369 576h328l-564 -840v-594z" />
    <glyph glyph-name="Z" unicode="Z" horiz-adv-x="1216" 
d="M96 1192v242h1049v-185l-725 -1007h727v-242h-1084v180l728 1012h-695z" />
    <glyph glyph-name="bracketleft" unicode="[" horiz-adv-x="765" 
d="M696 -256h-587v1874h587v-205h-354v-1464h354v-205z" />
    <glyph glyph-name="backslash" unicode="\" horiz-adv-x="911" 
d="M901 0h-266l-625 1434h266z" />
    <glyph glyph-name="bracketright" unicode="]" horiz-adv-x="765" 
d="M70 1618h587v-1874h-587v205h354v1464h-354v205z" />
    <glyph glyph-name="asciicircum" unicode="^" horiz-adv-x="1107" 
d="M61 717l375 717h236l375 -717h-226l-266 514l-268 -514h-226z" />
    <glyph glyph-name="underscore" unicode="_" horiz-adv-x="1011" 
d="M1014 -164v-188h-1016v188h1016z" />
    <glyph glyph-name="grave" unicode="`" horiz-adv-x="1044" 
d="M559 1468l225 -270h-256l-262 270h293z" />
    <glyph glyph-name="a" unicode="a" horiz-adv-x="1271" 
d="M899 903v121h264v-1024h-264v121q-120 -150 -334 -150q-205 0 -352 156q-145 157 -145 385q0 226 145 383q149 158 352 158q214 0 334 -150zM412 303q80 -80 202 -80q123 0 203 80q82 82 82 209q0 128 -82 207q-79 82 -203 82q-123 0 -202 -82q-80 -80 -80 -207
q0 -126 80 -209z" />
    <glyph glyph-name="b" unicode="b" horiz-adv-x="1320" 
d="M92 0v1434h268v-473q149 124 340 124q116 0 221 -44.5t180.5 -119.5t120 -177.5t44.5 -215.5t-44.5 -215.5t-120 -177.5t-180.5 -119.5t-221 -44.5q-190 0 -342 127v-98h-266zM356 528q0 -134 94.5 -228.5t227.5 -94.5q131 0 226 95t95 228q0 134 -95 228t-226 94
q-134 0 -228 -93.5t-94 -228.5z" />
    <glyph glyph-name="c" unicode="c" horiz-adv-x="1112" 
d="M322 530q0 -133 92 -227t223 -94q163 0 266 137l191 -139q-178 -234 -457 -234q-121 0 -229 44.5t-185.5 119.5t-122.5 177.5t-45 215.5t45 215.5t122.5 177t185.5 118.5t229 44q279 0 457 -233l-191 -139q-103 137 -266 137q-131 0 -223 -93t-92 -227z" />
    <glyph glyph-name="d" unicode="d" horiz-adv-x="1320" 
d="M1229 0h-266v98q-152 -127 -342 -127q-116 0 -221 44.5t-180.5 119.5t-120 177.5t-44.5 215.5t44.5 215.5t120 177.5t180.5 119.5t221 44.5q191 0 340 -124v473h268v-1434zM965 528q0 135 -94 228.5t-228 93.5q-131 0 -226 -94t-95 -228q0 -133 95 -228t226 -95
q133 0 227.5 94.5t94.5 228.5z" />
    <glyph glyph-name="e" unicode="e" horiz-adv-x="1204" 
d="M55 530q0 146 71.5 273t198.5 203.5t279 76.5q238 0 390.5 -159t152.5 -406v-78h-817q27 -106 107.5 -171.5t189.5 -65.5q87 0 153 32.5t125 106.5l187 -139q-80 -111 -198.5 -170.5t-264.5 -59.5q-160 0 -291.5 71.5t-207 199.5t-75.5 286zM598 854q-94 0 -164.5 -55.5
t-99.5 -153.5h543q-29 97 -104.5 153t-174.5 56z" />
    <glyph glyph-name="f" unicode="f" horiz-adv-x="739" 
d="M20 827v232h209v188q0 119 75 192.5t214 73.5h201v-231h-154q-69 0 -69 -72v-151h223v-232h-223v-827h-267v827h-209z" />
    <glyph glyph-name="g" unicode="g" horiz-adv-x="1304" 
d="M1212 1059v-1100q0 -177 -109.5 -283t-289.5 -106h-297v225h236q192 0 192 185v129q-148 -119 -332 -119q-152 0 -280 73t-202.5 199.5t-74.5 276.5t75 276t203.5 199t278.5 73q189 0 334 -120v92h266zM322 539q0 -131 91.5 -222.5t221.5 -91.5t221.5 91.5t91.5 222.5
t-91.5 223t-221.5 92q-129 0 -221 -92.5t-92 -222.5z" />
    <glyph glyph-name="h" unicode="h" horiz-adv-x="1161" 
d="M360 621v-621h-268v1434h268v-467q114 120 295 120q182 0 298 -118.5t116 -294.5v-674h-268v621q0 104 -60 165.5t-159 61.5q-100 0 -161 -61t-61 -166z" />
    <glyph glyph-name="i" unicode="i" 
d="M227 1171q-63 0 -107 43.5t-44 106.5t44 105t107 42t105.5 -42t42.5 -105t-42.5 -106.5t-105.5 -43.5zM360 1059v-1059h-268v1059h268z" />
    <glyph glyph-name="j" unicode="j" 
d="M227 1171q-63 0 -107 43.5t-44 106.5t44 105t107 42t105.5 -42t42.5 -105t-42.5 -106.5t-105.5 -43.5zM80 -430h-131v229h63q38 0 59 21t21 61v1178h268v-1223q0 -110 -77 -188t-203 -78z" />
    <glyph glyph-name="k" unicode="k" horiz-adv-x="1044" 
d="M92 1434h268v-832l369 457h307l-428 -510l459 -549h-328l-379 473v-473h-268v1434z" />
    <glyph glyph-name="l" unicode="l" 
d="M360 0h-268v1434h268v-1434z" />
    <glyph glyph-name="m" unicode="m" horiz-adv-x="1828" 
d="M358 627v-627h-266v1059h266v-86q114 114 285 114q115 0 205.5 -49t142.5 -137q54 88 143 137t197 49q179 0 291.5 -116t112.5 -289v-682h-267v627q0 98 -58.5 159.5t-152.5 61.5t-152 -60t-58 -161v-627h-267v627q0 98 -58.5 159.5t-152.5 61.5q-95 0 -153 -59.5
t-58 -161.5z" />
    <glyph glyph-name="n" unicode="n" horiz-adv-x="1161" 
d="M1069 674v-674h-268v621q0 104 -60 165.5t-159 61.5q-100 0 -161 -61t-61 -166v-621h-268v1059h268v-90q115 118 291 118q182 0 300 -119t118 -294z" />
    <glyph glyph-name="o" unicode="o" horiz-adv-x="1273" 
d="M1219 528q0 -150 -78.5 -278.5t-212.5 -203.5t-291 -75t-291 75t-212.5 203.5t-78.5 278.5t78.5 278.5t212.5 203.5t291 75t291 -74t212.5 -202.5t78.5 -280.5zM952 528q0 134 -92 227t-223 93t-223 -93t-92 -227t92 -226.5t223 -92.5t223 92.5t92 226.5z" />
    <glyph glyph-name="p" unicode="p" horiz-adv-x="1320" 
d="M92 1059h266v-101q152 127 342 127q116 0 221 -44.5t180.5 -119.5t120 -177.5t44.5 -215.5t-44.5 -215.5t-120 -177.5t-180.5 -119.5t-221 -44.5q-190 0 -340 125v-526h-268v1489zM356 528q0 -135 94 -228t228 -93q132 0 226.5 93.5t94.5 227.5q0 133 -95 228.5
t-226 95.5q-133 0 -227.5 -95t-94.5 -229z" />
    <glyph glyph-name="q" unicode="q" horiz-adv-x="1320" 
d="M1229 1059v-1489h-268v526q-150 -125 -340 -125q-116 0 -221 44.5t-180.5 119.5t-120 177.5t-44.5 215.5t44.5 215.5t120 177.5t180.5 119.5t221 44.5q190 0 342 -127v101h266zM965 528q0 134 -94.5 229t-227.5 95q-131 0 -226 -95.5t-95 -228.5q0 -134 94.5 -227.5
t226.5 -93.5q134 0 228 93t94 228z" />
    <glyph glyph-name="r" unicode="r" horiz-adv-x="720" 
d="M682 823h-96q-100 0 -163 -67t-63 -187v-569h-268v1059h266v-115q86 125 252 125h72v-246z" />
    <glyph glyph-name="s" unicode="s" horiz-adv-x="956" 
d="M365 733q0 -38 48 -63.5t138 -48.5q51 -11 94 -24.5t91 -39.5t81 -59t55 -84.5t21 -114.5q0 -159 -119 -244q-119 -84 -293 -84q-316 0 -430 244l230 129q47 -133 200 -133q142 0 142 88q0 38 -48.5 64t-138.5 49q-55 14 -95 27t-90 39t-81.5 57.5t-53.5 81t-22 110.5
q0 153 111 238q113 88 278 88q125 0 227 -56.5t162 -160.5l-225 -123q-49 104 -164 104q-52 0 -85 -23t-33 -61z" />
    <glyph glyph-name="t" unicode="t" horiz-adv-x="749" 
d="M727 0h-209q-142 0 -216.5 73t-74.5 193v561h-207v232h207v307h267v-307h233v-232h-233v-514q0 -82 100 -82h133v-231z" />
    <glyph glyph-name="u" unicode="u" horiz-adv-x="1161" 
d="M92 385v674h268v-621q0 -99 61 -163t159 -64q99 0 160 62.5t61 164.5v621h268v-1059h-268v94q-116 -119 -291 -119q-182 0 -300 118t-118 292z" />
    <glyph glyph-name="v" unicode="v" horiz-adv-x="1128" 
d="M451 0l-461 1059h289l290 -713l291 713h279l-459 -1059h-229z" />
    <glyph glyph-name="w" unicode="w" horiz-adv-x="1605" 
d="M698 1059h217l230 -668l186 668h275l-322 -1059h-244l-237 690l-238 -690h-243l-322 1059h283l186 -668z" />
    <glyph glyph-name="x" unicode="x" horiz-adv-x="1093" 
d="M-10 0l411 543l-391 516h305l232 -320l231 320h295l-385 -510l416 -549h-305l-256 354l-258 -354h-295z" />
    <glyph glyph-name="y" unicode="y" horiz-adv-x="1128" 
d="M391 -98l49 118l-450 1039h289l292 -715l289 715h279l-516 -1258q-52 -129 -124.5 -180t-197.5 -51h-158v225h103q56 0 88.5 23t56.5 84z" />
    <glyph glyph-name="z" unicode="z" horiz-adv-x="970" 
d="M63 827v232h842v-199l-518 -629h533v-231h-867v193l527 634h-517z" />
    <glyph glyph-name="braceleft" unicode="{" horiz-adv-x="917" 
d="M590 295l-66 -135q-44 -92 -6 -163t131 -71q95 0 185 33l38 -190q-117 -43 -249 -43q-113 0 -197 38t-125 104t-44 156t46 193l78 172q33 74 -6.5 133.5t-124.5 59.5h-195v200h185q92 0 134 57.5t7 135.5l-78 172q-49 103 -46 193t44 156t125 104t197 38q132 0 249 -43
l-38 -190q-90 33 -185 33q-92 0 -131 -71t6 -163l66 -135q65 -142 14 -252t-198 -135q147 -29 198 -139t-14 -248z" />
    <glyph glyph-name="bar" unicode="|" horiz-adv-x="514" 
d="M360 -430h-268v1864h268v-1864z" />
    <glyph glyph-name="braceright" unicode="}" horiz-adv-x="917" 
d="M338 1069l65 135q44 92 6 163t-130 71q-95 0 -185 -33l-39 190q117 43 250 43q113 0 197 -38t125 -104t44 -156t-46 -193l-78 -172q-33 -74 6.5 -133.5t124.5 -59.5h194v-200h-184q-92 0 -134 -57.5t-7 -135.5l78 -172q49 -103 46 -193t-44 -156t-125 -104t-197 -38
q-133 0 -250 43l39 190q90 -33 185 -33q92 0 130.5 71t-6.5 163l-65 135q-65 142 -14 252t198 135q-147 29 -198 139t14 248z" />
    <glyph glyph-name="asciitilde" unicode="~" horiz-adv-x="1056" 
d="M240 596l-199 49q37 161 104.5 239.5t171.5 78.5q55 0 136 -36.5t153 -73t107 -36.5q36 0 56.5 34t45.5 124l201 -49q-37 -162 -103.5 -240t-173.5 -78q-56 0 -136 37t-152.5 74t-108.5 37q-35 0 -56 -35.5t-46 -124.5z" />
    <glyph glyph-name="nbspace" unicode="&#xa0;" horiz-adv-x="409" 
 />
    <glyph glyph-name="exclamdown" unicode="&#xa1;" horiz-adv-x="450" 
d="M90 1026h227l21 -1042h-266zM205 1141q-62 0 -105 43t-43 104t43 103.5t105 42.5t104.5 -42.5t42.5 -103.5q0 -62 -43 -104.5t-104 -42.5z" />
    <glyph glyph-name="cent" unicode="&#xa2;" horiz-adv-x="1132" 
d="M723 1288v-209q226 -32 371 -227l-191 -139q-69 93 -180 127v-621q111 34 180 127l191 -139q-145 -195 -371 -227v-216h-188v218q-207 32 -343.5 188t-136.5 360t136.5 359.5t343.5 187.5v211h188zM322 530q0 -104 59.5 -186.5t153.5 -118.5v609q-94 -33 -153.5 -116.5
t-59.5 -187.5z" />
    <glyph glyph-name="sterling" unicode="&#xa3;" horiz-adv-x="1196" 
d="M836 778v-196h-287l4 -11q33 -106 15.5 -191t-79.5 -149h652v-231h-1080v231h64q107 0 159 88.5t11 210.5l-16 52h-213v196h147l-27 84q-31 98 -29.5 186t39 163t98 129.5t148.5 85t191 30.5q199 0 338 -118t168 -312h-260q-23 102 -87 155.5t-163 53.5
q-126 0 -180 -95.5t-5 -236.5l41 -125h351z" />
    <glyph glyph-name="yen" unicode="&#xa5;" horiz-adv-x="1404" 
d="M250 412h328v123h-328v172h254l-488 727h336l369 -576l369 576h327l-487 -727h246v-172h-322v-123h322v-172h-322v-240h-276v240h-328v172z" />
    <glyph glyph-name="section" unicode="&#xa7;" horiz-adv-x="1196" 
d="M1044 96q0 -145 -111.5 -240.5t-297.5 -95.5q-200 0 -330 100.5t-160 258.5h254q18 -75 81.5 -112.5t154.5 -37.5q68 0 108.5 26t40.5 73q0 69 -106 106l-334 113q-153 53 -225 132t-72 210q0 104 50.5 182t138.5 117q-84 78 -84 202q0 151 113 242.5t292 91.5
q194 0 316.5 -102t148.5 -260h-254q-22 79 -80.5 116t-132.5 37q-67 0 -105 -25.5t-38 -72.5q0 -38 30 -63.5t97 -49.5l313 -112q151 -57 224 -135.5t73 -206.5q0 -104 -49 -181t-137 -116q81 -72 81 -197zM760 705l-273 98q-79 28 -134.5 -14.5t-55.5 -110.5
q0 -58 33.5 -98t105.5 -66l271 -98q79 -28 135.5 15.5t56.5 111.5q0 112 -139 162z" />
    <glyph glyph-name="dieresis" unicode="&#xa8;" horiz-adv-x="1159" 
d="M373 1178q-62 0 -105 42t-43 105q0 61 43 102t105 41q61 0 102 -41t41 -102q0 -63 -41 -105t-102 -42zM791 1178q-62 0 -104 42t-42 105q0 61 42 102t104 41t103.5 -41t41.5 -102q0 -63 -41.5 -105t-103.5 -42z" />
    <glyph glyph-name="copyright" unicode="&#xa9;" horiz-adv-x="1673" 
d="M838 -27q-208 0 -382 99t-274 270t-100 375q0 153 59 290.5t159.5 236.5t241 157.5t296.5 58.5t295.5 -58.5t239.5 -157.5t159 -236.5t59 -290.5t-59 -290.5t-159 -237t-240 -158t-295 -58.5zM838 104q167 0 306.5 81t220.5 222t81 310q0 127 -48 240.5t-129 195
t-193.5 129t-237.5 47.5q-168 0 -308 -80.5t-221.5 -221.5t-81.5 -310t81.5 -310t221.5 -222t308 -81zM639 719q0 -92 64 -157.5t155 -65.5q111 0 184 94l134 -96q-128 -162 -318 -162q-171 0 -288 113t-117 274q0 163 117 276t288 113q190 0 318 -162l-134 -98
q-71 94 -184 94q-91 0 -155 -65t-64 -158z" />
    <glyph glyph-name="ordfeminine" unicode="&#xaa;" horiz-adv-x="837" 
d="M43 887q0 201 254 223l211 16v17q0 50 -31.5 77t-91.5 27q-99 0 -199 -59l-88 158q128 96 322 96q137 0 220 -74t83 -197v-262q0 -43 39 -43h41v-190h-101q-113 0 -161 86q-39 -50 -100 -77.5t-136 -27.5q-115 0 -188.5 65.5t-73.5 164.5zM254 891q0 -32 27.5 -51
t74.5 -19q63 0 107.5 34t44.5 81v39l-180 -17q-74 -6 -74 -67z" />
    <glyph glyph-name="guillemotleft" unicode="&#xab;" horiz-adv-x="1374" 
d="M801 1059l-479 -524l485 -535h-283l-489 530l489 529h277zM1331 1059l-479 -524l485 -535h-282l-490 530l490 529h276z" />
    <glyph glyph-name="registered" unicode="&#xae;" horiz-adv-x="987" 
d="M492 618q-174 0 -296 122t-122 298q0 175 122.5 297.5t295.5 122.5t295 -122.5t122 -297.5q0 -176 -121.5 -298t-295.5 -122zM492 717q133 0 225 93t92 228q0 134 -92 228t-225 94t-224.5 -94t-91.5 -228q0 -135 91.5 -228t224.5 -93zM342 850v385h168q59 0 92 -32
t33 -87q0 -68 -66 -98l97 -168h-109l-80 149h-35v-149h-100zM492 1159h-50v-88h47q25 0 38.5 12.5t13.5 32.5q0 43 -49 43z" />
    <glyph glyph-name="overscore" unicode="&#xaf;" horiz-adv-x="1044" 
d="M805 1403v-174h-547v174h547z" />
    <glyph glyph-name="degree" unicode="&#xb0;" horiz-adv-x="720" 
d="M362 860q-126 0 -212.5 87.5t-86.5 213.5q0 119 86 206t213 87q123 0 209 -87t86 -206q0 -126 -86.5 -213.5t-208.5 -87.5zM362 1010q60 0 102 44t42 107q0 59 -43 102.5t-101 43.5q-61 0 -105 -43t-44 -103q0 -63 43.5 -107t105.5 -44z" />
    <glyph glyph-name="plusminus" unicode="&#xb1;" horiz-adv-x="1116" 
d="M664 395h-209v334h-363v205h363v326h209v-326h360v-205h-360v-334zM1024 205v-205h-932v205h932z" />
    <glyph glyph-name="twosuperior" unicode="&#xb2;" horiz-adv-x="675" 
d="M604 1204q2 -62 -24 -118.5t-97 -127.5l-159 -161l294 6v-158h-550v117l284 291q41 43 56.5 74t15.5 65q0 46 -31.5 74t-79.5 28q-80 0 -139 -102l-143 82q94 174 297 174q125 0 200.5 -69t75.5 -175z" />
    <glyph glyph-name="threesuperior" unicode="&#xb3;" horiz-adv-x="716" 
d="M358 1448q113 0 190 -64t77 -157q0 -53 -30 -96t-85 -70q63 -24 102 -74.5t39 -112.5q0 -104 -84.5 -175.5t-214.5 -71.5q-217 0 -307 164l148 79q52 -88 153 -88q56 0 89.5 29.5t33.5 73.5q0 37 -29.5 62.5t-77.5 25.5h-124v145h110q42 0 69 25.5t27 62.5
q0 39 -28.5 63.5t-77.5 24.5q-85 0 -135 -88l-148 76q88 166 303 166z" />
    <glyph glyph-name="acute" unicode="&#xb4;" horiz-adv-x="1044" 
d="M500 1468h295l-265 -270h-254z" />
    <glyph glyph-name="paragraph" unicode="&#xb6;" horiz-adv-x="1236" 
d="M82 999q0 183 125.5 309t308.5 126h621v-1434h-209v565h-117v-565h-209v565h-86q-183 0 -308.5 125.5t-125.5 308.5z" />
    <glyph glyph-name="middot" unicode="&#xb7;" 
d="M225 766q66 0 111 -44t45 -110t-45 -109.5t-111 -43.5t-110.5 43.5t-44.5 109.5t44.5 110t110.5 44z" />
    <glyph glyph-name="cedilla" unicode="&#xb8;" horiz-adv-x="1044" 
d="M797 -264q0 -86 -69.5 -144.5t-172.5 -58.5q-79 0 -144 27.5t-102 77.5l107 88q56 -62 127 -62q41 0 66.5 22t25.5 52q0 34 -27 54t-69 20h-88l65 202h143l-36 -104q80 -11 127 -57t47 -117z" />
    <glyph glyph-name="onesuperior" unicode="&#xb9;" horiz-adv-x="622" 
d="M578 803v-158h-535v158h176v473h-139v158h319v-631h179z" />
    <glyph glyph-name="ordmasculine" unicode="&#xba;" horiz-adv-x="929" 
d="M881 1051q0 -165 -122 -280.5t-296 -115.5q-112 0 -208 53t-153 144.5t-57 198.5q0 163 123.5 279t294.5 116q175 0 296.5 -114.5t121.5 -280.5zM664 1051q0 84 -57.5 142t-143.5 58q-85 0 -142 -57.5t-57 -142.5q0 -86 57 -143.5t142 -57.5q86 0 143.5 58t57.5 143z" />
    <glyph glyph-name="guillemotright" unicode="&#xbb;" horiz-adv-x="1374" 
d="M541 0l479 524l-485 535h282l490 -531l-490 -528h-276zM10 0l479 524l-485 535h283l489 -531l-489 -528h-277z" />
    <glyph glyph-name="onequarter" unicode="&#xbc;" horiz-adv-x="1568" 
d="M578 803v-158h-535v158h176v473h-139v158h319v-631h179zM578 803v-158h-535v158h176v473h-139v158h319v-631h179zM1284 0v186h-377v136l320 466h237v-452h86v-150h-86v-186h-180zM1094 336h190v287zM537 0h-203l770 1434h203z" />
    <glyph glyph-name="onehalf" unicode="&#xbd;" horiz-adv-x="1644" 
d="M578 803v-158h-535v158h176v473h-139v158h319v-631h179zM578 803v-158h-535v158h176v473h-139v158h319v-631h179zM1573 559q2 -62 -24 -118.5t-97 -127.5l-160 -161l295 6v-158h-551v117l285 291q41 43 56.5 74t15.5 65q0 46 -31.5 74t-79.5 28q-80 0 -139 -102l-144 82
q94 174 297 174q125 0 201 -69t76 -175zM526 0h-202l770 1434h202z" />
    <glyph glyph-name="threequarters" unicode="&#xbe;" horiz-adv-x="1509" 
d="M358 1448q113 0 190 -64t77 -157q0 -53 -30 -96t-85 -70q63 -24 102 -74.5t39 -112.5q0 -104 -84.5 -175.5t-214.5 -71.5q-217 0 -307 164l148 79q52 -88 153 -88q56 0 89.5 29.5t33.5 73.5q0 37 -29.5 62.5t-77.5 25.5h-124v145h110q42 0 69 25.5t27 62.5
q0 39 -28.5 63.5t-77.5 24.5q-85 0 -135 -88l-148 76q88 166 303 166zM358 1448q113 0 190 -64t77 -157q0 -53 -30 -96t-85 -70q63 -24 102 -74.5t39 -112.5q0 -104 -84.5 -175.5t-214.5 -71.5q-217 0 -307 164l148 79q52 -88 153 -88q56 0 89.5 29.5t33.5 73.5
q0 37 -29.5 62.5t-77.5 25.5h-124v145h110q42 0 69 25.5t27 62.5q0 39 -28.5 63.5t-77.5 24.5q-85 0 -135 -88l-148 76q88 166 303 166zM1300 0v186h-376v136l319 466h238v-452h86v-150h-86v-186h-181zM1110 336h190v287zM555 0h-203l770 1434h203z" />
    <glyph glyph-name="questiondown" unicode="&#xbf;" horiz-adv-x="1048" 
d="M29 424q0 161 106 282t266 138l7 213h215l8 -414h-115q-94 0 -158.5 -59t-64.5 -146q0 -91 65 -152t160 -61q163 0 266 137l193 -139q-183 -233 -465 -233q-205 0 -344 125.5t-139 308.5zM516 1174q-61 0 -103 42.5t-42 104.5q0 61 41.5 103t103.5 42t105 -42t43 -103
t-43 -104t-105 -43z" />
    <glyph glyph-name="Agrave" unicode="&#xc0;" horiz-adv-x="1466" 
d="M872 1434l605 -1434h-295l-142 350h-622l-142 -350h-286l604 1434h278zM512 590h432l-215 536zM684 1843l225 -270h-256l-262 270h293z" />
    <glyph glyph-name="Aacute" unicode="&#xc1;" horiz-adv-x="1466" 
d="M872 1434l605 -1434h-295l-142 350h-622l-142 -350h-286l604 1434h278zM512 590h432l-215 536zM782 1843h295l-264 -270h-254z" />
    <glyph glyph-name="Acircumflex" unicode="&#xc2;" horiz-adv-x="1466" 
d="M872 1434l605 -1434h-295l-142 350h-622l-142 -350h-286l604 1434h278zM512 590h432l-215 536zM594 1573h-223l233 270h262l232 -270h-226l-139 143z" />
    <glyph glyph-name="Atilde" unicode="&#xc3;" horiz-adv-x="1466" 
d="M872 1434l605 -1434h-295l-142 350h-622l-142 -350h-286l604 1434h278zM512 590h432l-215 536zM592 1823q49 0 141.5 -43t116.5 -43q25 0 42 20.5t28 73.5l167 -37q-57 -229 -217 -229q-50 0 -141 43t-115 43q-25 0 -42.5 -21t-28.5 -74l-168 35q29 120 82.5 176
t134.5 56z" />
    <glyph glyph-name="Adieresis" unicode="&#xc4;" horiz-adv-x="1466" 
d="M872 1434l605 -1434h-295l-142 350h-622l-142 -350h-286l604 1434h278zM512 590h432l-215 536zM524 1552q-62 0 -104.5 42.5t-42.5 105.5q0 61 42.5 102t104.5 41t103 -41t41 -102q0 -63 -41.5 -105.5t-102.5 -42.5zM942 1552q-62 0 -103.5 42.5t-41.5 105.5
q0 61 41.5 102t103.5 41t103.5 -41t41.5 -102q0 -63 -41.5 -105.5t-103.5 -42.5z" />
    <glyph glyph-name="Aring" unicode="&#xc5;" horiz-adv-x="1466" 
d="M872 1434l605 -1434h-295l-142 350h-622l-142 -350h-286l604 1434h278zM512 590h432l-215 536zM733 1536q-99 0 -167 66.5t-68 164.5q0 95 68.5 161.5t166.5 66.5t167 -66.5t69 -161.5q0 -97 -69 -164t-167 -67zM733 1653q47 0 80 33.5t33 80.5q0 45 -33 77t-80 32
t-79.5 -32t-32.5 -77q0 -47 32.5 -80.5t79.5 -33.5z" />
    <glyph glyph-name="AE" unicode="&#xc6;" horiz-adv-x="2025" 
d="M1933 242v-242h-905v332h-520l-199 -332h-319l909 1434h1034v-242h-628v-354h608v-236h-608v-360h628zM653 571h375v625z" />
    <glyph glyph-name="Ccedilla" unicode="&#xc7;" horiz-adv-x="1480" 
d="M72 719q0 203 98 372.5t273.5 269t392.5 99.5q190 0 349.5 -82.5t266.5 -226.5l-215 -158q-70 99 -175.5 157t-221.5 58q-135 0 -246.5 -61.5t-176.5 -174t-65 -253.5q0 -217 141.5 -355.5t346.5 -138.5q124 0 230.5 57.5t172.5 157.5l215 -157q-94 -133 -239 -214.5
t-322 -93.5l-23 -65q80 -11 127.5 -57t47.5 -117q0 -86 -69.5 -144.5t-172.5 -58.5q-79 0 -144 27.5t-102 77.5l107 88q56 -62 127 -62q41 0 66.5 22t25.5 52q0 34 -27 54t-69 20h-89l54 165q-199 19 -355 121t-242.5 264.5t-86.5 356.5z" />
    <glyph glyph-name="Egrave" unicode="&#xc8;" horiz-adv-x="1099" 
d="M102 0v1434h904v-242h-627v-354h606v-236h-606v-360h627v-242h-904zM520 1843l225 -270h-256l-262 270h293z" />
    <glyph glyph-name="Eacute" unicode="&#xc9;" horiz-adv-x="1099" 
d="M102 0v1434h904v-242h-627v-354h606v-236h-606v-360h627v-242h-904zM618 1843h295l-264 -270h-254z" />
    <glyph glyph-name="Ecircumflex" unicode="&#xca;" horiz-adv-x="1099" 
d="M102 0v1434h904v-242h-627v-354h606v-236h-606v-360h627v-242h-904zM430 1573h-223l233 270h262l232 -270h-225l-140 143z" />
    <glyph glyph-name="Edieresis" unicode="&#xcb;" horiz-adv-x="1099" 
d="M102 0v1434h904v-242h-627v-354h606v-236h-606v-360h627v-242h-904zM360 1552q-62 0 -104.5 42.5t-42.5 105.5q0 61 42.5 102t104.5 41t103 -41t41 -102q0 -63 -41.5 -105.5t-102.5 -42.5zM778 1552q-62 0 -103.5 42.5t-41.5 105.5q0 61 41.5 102t103.5 41t104 -41
t42 -102q0 -63 -42 -105.5t-104 -42.5z" />
    <glyph glyph-name="Igrave" unicode="&#xcc;" horiz-adv-x="479" 
d="M379 0h-277v1434h277v-1434zM190 1843l226 -270h-256l-262 270h292z" />
    <glyph glyph-name="Iacute" unicode="&#xcd;" horiz-adv-x="479" 
d="M379 0h-277v1434h277v-1434zM291 1843h295l-264 -270h-254z" />
    <glyph glyph-name="Icircumflex" unicode="&#xce;" horiz-adv-x="479" 
d="M379 0h-277v1434h277v-1434zM100 1573h-223l234 270h262l231 -270h-225l-139 143z" />
    <glyph glyph-name="Idieresis" unicode="&#xcf;" horiz-adv-x="479" 
d="M379 0h-277v1434h277v-1434zM33 1552q-62 0 -105 42.5t-43 105.5q0 61 43 102t105 41q61 0 102 -40.5t41 -102.5q0 -63 -41 -105.5t-102 -42.5zM451 1552q-62 0 -104 42.5t-42 105.5q0 61 42 102t104 41t103.5 -41t41.5 -102q0 -63 -41.5 -105.5t-103.5 -42.5z" />
    <glyph glyph-name="Eth" unicode="&#xd0;" horiz-adv-x="1544" 
d="M10 600v234h152v600h567q204 0 375 -95t270 -260t99 -362t-99 -362t-270 -260t-375 -95h-567v600h-152zM700 1192h-262v-358h314v-234h-314v-358h262q204 0 347 138t143 337q0 200 -142.5 337.5t-347.5 137.5z" />
    <glyph glyph-name="Ntilde" unicode="&#xd1;" horiz-adv-x="1486" 
d="M358 0h-256v1434h304l724 -1055l-2 1055h256v-1434h-303l-725 1055zM602 1823q49 0 141.5 -43t116.5 -43q25 0 42 20.5t28 73.5l168 -37q-57 -229 -217 -229q-50 0 -141 43t-115 43q-25 0 -43 -21t-29 -74l-168 35q29 120 82.5 176t134.5 56z" />
    <glyph glyph-name="Ograve" unicode="&#xd2;" horiz-adv-x="1669" 
d="M72 717q0 204 100 374.5t276 269.5t388 99q158 0 299 -58.5t242.5 -157.5t160.5 -236.5t59 -290.5t-59 -290.5t-160.5 -237t-242.5 -158t-299 -58.5q-159 0 -301 58.5t-243.5 158t-160.5 237t-59 290.5zM354 717q0 -208 140 -349t342 -141q203 0 341 140.5t138 349.5
q0 136 -63 248.5t-173 176.5t-243 64q-202 0 -342 -141.5t-140 -347.5zM786 1843l226 -270h-256l-262 270h292z" />
    <glyph glyph-name="Oacute" unicode="&#xd3;" horiz-adv-x="1669" 
d="M72 717q0 204 100 374.5t276 269.5t388 99q158 0 299 -58.5t242.5 -157.5t160.5 -236.5t59 -290.5t-59 -290.5t-160.5 -237t-242.5 -158t-299 -58.5q-159 0 -301 58.5t-243.5 158t-160.5 237t-59 290.5zM354 717q0 -208 140 -349t342 -141q203 0 341 140.5t138 349.5
q0 136 -63 248.5t-173 176.5t-243 64q-202 0 -342 -141.5t-140 -347.5zM885 1843h295l-265 -270h-253z" />
    <glyph glyph-name="Ocircumflex" unicode="&#xd4;" horiz-adv-x="1669" 
d="M72 717q0 204 100 374.5t276 269.5t388 99q158 0 299 -58.5t242.5 -157.5t160.5 -236.5t59 -290.5t-59 -290.5t-160.5 -237t-242.5 -158t-299 -58.5q-159 0 -301 58.5t-243.5 158t-160.5 237t-59 290.5zM354 717q0 -208 140 -349t342 -141q203 0 341 140.5t138 349.5
q0 136 -63 248.5t-173 176.5t-243 64q-202 0 -342 -141.5t-140 -347.5zM696 1573h-223l234 270h262l231 -270h-225l-139 143z" />
    <glyph glyph-name="Otilde" unicode="&#xd5;" horiz-adv-x="1669" 
d="M72 717q0 204 100 374.5t276 269.5t388 99q158 0 299 -58.5t242.5 -157.5t160.5 -236.5t59 -290.5t-59 -290.5t-160.5 -237t-242.5 -158t-299 -58.5q-159 0 -301 58.5t-243.5 158t-160.5 237t-59 290.5zM354 717q0 -208 140 -349t342 -141q203 0 341 140.5t138 349.5
q0 136 -63 248.5t-173 176.5t-243 64q-202 0 -342 -141.5t-140 -347.5zM694 1823q49 0 141.5 -43t116.5 -43q25 0 42 20.5t28 73.5l168 -37q-57 -229 -217 -229q-50 0 -141 43t-115 43q-25 0 -43 -21t-29 -74l-168 35q29 120 82.5 176t134.5 56z" />
    <glyph glyph-name="Odieresis" unicode="&#xd6;" horiz-adv-x="1669" 
d="M72 717q0 204 100 374.5t276 269.5t388 99q158 0 299 -58.5t242.5 -157.5t160.5 -236.5t59 -290.5t-59 -290.5t-160.5 -237t-242.5 -158t-299 -58.5q-159 0 -301 58.5t-243.5 158t-160.5 237t-59 290.5zM354 717q0 -208 140 -349t342 -141q203 0 341 140.5t138 349.5
q0 136 -63 248.5t-173 176.5t-243 64q-202 0 -342 -141.5t-140 -347.5zM627 1552q-62 0 -105 42.5t-43 105.5q0 61 43 102t105 41q61 0 102 -40.5t41 -102.5q0 -63 -41 -105.5t-102 -42.5zM1044 1552q-62 0 -103.5 42.5t-41.5 105.5q0 61 41.5 102t103.5 41t104 -41t42 -102
q0 -63 -42 -105.5t-104 -42.5z" />
    <glyph glyph-name="multiply" unicode="&#xd7;" horiz-adv-x="1095" 
d="M244 295l-131 131l303 307l-305 309l135 136l303 -310l303 308l131 -132l-303 -307l305 -309l-135 -135l-303 309z" />
    <glyph glyph-name="Oslash" unicode="&#xd8;" horiz-adv-x="1669" 
d="M129 0l158 195q-102 102 -158.5 236.5t-56.5 285.5q0 204 100 374.5t276 269.5t388 99q214 0 395 -104l63 78h248l-160 -197q102 -102 158.5 -235.5t56.5 -284.5q0 -153 -59 -290.5t-160.5 -237t-242.5 -158t-299 -58.5q-213 0 -396 105l-63 -78h-248zM354 717
q0 -179 105 -309l604 741q-102 57 -227 57q-202 0 -342 -141.5t-140 -347.5zM1315 717q0 175 -105 309l-602 -743q109 -56 228 -56q203 0 341 140.5t138 349.5z" />
    <glyph glyph-name="Ugrave" unicode="&#xd9;" horiz-adv-x="1380" 
d="M668 -29q-241 0 -394 135t-153 363v965h280v-942q0 -116 67 -180t200 -64t199.5 64t66.5 180v942h283v-965q0 -227 -154 -363q-153 -135 -395 -135zM637 1843l225 -270h-256l-262 270h293z" />
    <glyph glyph-name="Uacute" unicode="&#xda;" horiz-adv-x="1380" 
d="M668 -29q-241 0 -394 135t-153 363v965h280v-942q0 -116 67 -180t200 -64t199.5 64t66.5 180v942h283v-965q0 -227 -154 -363q-153 -135 -395 -135zM735 1843h295l-264 -270h-254z" />
    <glyph glyph-name="Ucircumflex" unicode="&#xdb;" horiz-adv-x="1380" 
d="M668 -29q-241 0 -394 135t-153 363v965h280v-942q0 -116 67 -180t200 -64t199.5 64t66.5 180v942h283v-965q0 -227 -154 -363q-153 -135 -395 -135zM547 1573h-223l233 270h262l232 -270h-226l-139 143z" />
    <glyph glyph-name="Udieresis" unicode="&#xdc;" horiz-adv-x="1380" 
d="M668 -29q-241 0 -394 135t-153 363v965h280v-942q0 -116 67 -180t200 -64t199.5 64t66.5 180v942h283v-965q0 -227 -154 -363q-153 -135 -395 -135zM477 1552q-62 0 -104.5 42.5t-42.5 105.5q0 61 42.5 102t104.5 41t103 -41t41 -102q0 -63 -41.5 -105.5t-102.5 -42.5z
M895 1552q-62 0 -103.5 42.5t-41.5 105.5q0 61 41.5 102t103.5 41t103.5 -41t41.5 -102q0 -63 -41.5 -105.5t-103.5 -42.5z" />
    <glyph glyph-name="Yacute" unicode="&#xdd;" horiz-adv-x="1380" 
d="M827 0h-276v598l-561 836h336l368 -576l369 576h328l-564 -840v-594zM739 1843h295l-264 -270h-254z" />
    <glyph glyph-name="Thorn" unicode="&#xde;" horiz-adv-x="1236" 
d="M379 1434v-283h340q183 0 309.5 -125.5t126.5 -308.5q0 -184 -126 -308t-310 -124h-340v-285h-277v1434h277zM690 911h-311v-397h311q81 0 131.5 56.5t50.5 142.5q0 87 -50.5 142.5t-131.5 55.5z" />
    <glyph glyph-name="germandbls" unicode="&#xdf;" horiz-adv-x="1331" 
d="M952 846l-157 -88q-35 -21 -35 -43t15 -33.5t48 -19.5l178 -48q152 -41 219.5 -113.5t67.5 -191.5q0 -145 -105 -239.5t-284 -94.5q-176 0 -285.5 91.5t-138.5 236.5h252q33 -125 168 -125q65 0 101 28.5t36 72.5q0 38 -24 63.5t-82 42.5l-150 43q-137 39 -199.5 98.5
t-62.5 159.5q0 82 37 135t115 97l100 57q86 47 86 108q0 60 -62.5 100t-158.5 40q-118 0 -190 -69t-72 -187v-967h-269v967q0 228 150 358.5t389 130.5q204 0 341.5 -101t137.5 -255q0 -89 -42 -150t-124 -104z" />
    <glyph glyph-name="agrave" unicode="&#xe0;" horiz-adv-x="1116" 
d="M899 903v121h264v-1024h-264v121q-120 -150 -334 -150q-205 0 -352 156q-145 157 -145 385q0 226 145 383q149 158 352 158q214 0 334 -150zM412 303q80 -80 202 -80q123 0 203 80q82 82 82 209q0 128 -82 207q-79 82 -203 82q-123 0 -202 -82q-80 -80 -80 -207
q0 -126 80 -209zM492 1468l225 -270h-256l-262 270h293z" />
    <glyph glyph-name="aacute" unicode="&#xe1;" horiz-adv-x="1116" 
d="M899 903v121h264v-1024h-264v121q-120 -150 -334 -150q-205 0 -352 156q-145 157 -145 385q0 226 145 383q149 158 352 158q214 0 334 -150zM412 303q80 -80 202 -80q123 0 203 80q82 82 82 209q0 128 -82 207q-79 82 -203 82q-123 0 -202 -82q-80 -80 -80 -207
q0 -126 80 -209zM590 1468h295l-264 -270h-254z" />
    <glyph glyph-name="acircumflex" unicode="&#xe2;" horiz-adv-x="1116" 
d="M899 903v121h264v-1024h-264v121q-120 -150 -334 -150q-205 0 -352 156q-145 157 -145 385q0 226 145 383q149 158 352 158q214 0 334 -150zM412 303q80 -80 202 -80q123 0 203 80q82 82 82 209q0 128 -82 207q-79 82 -203 82q-123 0 -202 -82q-80 -80 -80 -207
q0 -126 80 -209zM401 1198h-223l234 270h262l231 -270h-225l-139 143z" />
    <glyph glyph-name="atilde" unicode="&#xe3;" horiz-adv-x="1116" 
d="M899 903v121h264v-1024h-264v121q-120 -150 -334 -150q-205 0 -352 156q-145 157 -145 385q0 226 145 383q149 158 352 158q214 0 334 -150zM412 303q80 -80 202 -80q123 0 203 80q82 82 82 209q0 128 -82 207q-79 82 -203 82q-123 0 -202 -82q-80 -80 -80 -207
q0 -126 80 -209zM399 1448q49 0 141.5 -43t116.5 -43q25 0 42 20.5t28 73.5l168 -37q-57 -229 -217 -229q-50 0 -141 43t-115 43q-52 0 -72 -94l-168 35q29 120 82.5 175.5t134.5 55.5z" />
    <glyph glyph-name="adieresis" unicode="&#xe4;" horiz-adv-x="1116" 
d="M899 903v121h264v-1024h-264v121q-120 -150 -334 -150q-205 0 -352 156q-145 157 -145 385q0 226 145 383q149 158 352 158q214 0 334 -150zM412 303q80 -80 202 -80q123 0 203 80q82 82 82 209q0 128 -82 207q-79 82 -203 82q-123 0 -202 -82q-80 -80 -80 -207
q0 -126 80 -209zM332 1178q-62 0 -105 42t-43 105q0 61 43 102t105 41t102.5 -41t40.5 -102q0 -63 -41 -105t-102 -42zM750 1178q-62 0 -104 42t-42 105q0 61 42 102t104 41t103.5 -41t41.5 -102q0 -63 -41.5 -105t-103.5 -42z" />
    <glyph glyph-name="aring" unicode="&#xe5;" horiz-adv-x="1116" 
d="M899 903v121h264v-1024h-264v121q-120 -150 -334 -150q-205 0 -352 156q-145 157 -145 385q0 226 145 383q149 158 352 158q214 0 334 -150zM412 303q80 -80 202 -80q123 0 203 80q82 82 82 209q0 128 -82 207q-79 82 -203 82q-123 0 -202 -82q-80 -80 -80 -207
q0 -126 80 -209zM541 1161q-99 0 -167.5 67t-68.5 165q0 95 69 161t167 66t166.5 -66t68.5 -161q0 -97 -68.5 -164.5t-166.5 -67.5zM541 1278q47 0 79.5 33.5t32.5 81.5q0 45 -32.5 76.5t-79.5 31.5t-80 -32t-33 -76q0 -47 33 -81t80 -34z" />
    <glyph glyph-name="ae" unicode="&#xe6;" horiz-adv-x="1859" 
d="M1296 -25q-139 0 -255.5 55.5t-192.5 155.5q-130 -213 -430 -213q-161 0 -267 92t-106 232q0 142 92 223t260 92l314 21v43q0 78 -50.5 122t-142.5 44q-143 0 -282 -92l-111 192q178 139 432 139q111 0 197.5 -41.5t136.5 -117.5q144 163 379 163q233 0 383.5 -159
t150.5 -406v-78h-819q27 -104 108.5 -170.5t190.5 -66.5q87 0 153.5 32.5t125.5 106.5l186 -139q-173 -230 -453 -230zM1255 856q-94 0 -165.5 -55.5t-100.5 -153.5h545q-29 97 -104.5 153t-174.5 56zM301 299q0 -55 46.5 -88t121.5 -33q99 0 170.5 57t71.5 136v63l-275 -20
q-135 -9 -135 -115z" />
    <glyph glyph-name="ccedilla" unicode="&#xe7;" horiz-adv-x="1122" 
d="M322 530q0 -133 92 -227t223 -94q163 0 266 137l191 -139q-160 -208 -394 -230l-22 -67q80 -11 127 -57t47 -117q0 -86 -69.5 -144.5t-172.5 -58.5q-79 0 -143.5 27.5t-101.5 77.5l106 88q56 -62 127 -62q41 0 66.5 22t25.5 52q0 34 -27 54t-69 20h-88l53 165
q-218 29 -361 184.5t-143 368.5q0 113 45 215.5t122.5 177t185.5 118.5t229 44q279 0 457 -233l-191 -139q-103 137 -266 137q-131 0 -223 -93t-92 -227z" />
    <glyph glyph-name="egrave" unicode="&#xe8;" horiz-adv-x="1204" 
d="M55 530q0 146 71.5 273t198.5 203.5t279 76.5q238 0 390.5 -159t152.5 -406v-78h-817q27 -106 107.5 -171.5t189.5 -65.5q87 0 153 32.5t125 106.5l187 -139q-80 -111 -198.5 -170.5t-264.5 -59.5q-160 0 -291.5 71.5t-207 199.5t-75.5 286zM598 854q-94 0 -164.5 -55.5
t-99.5 -153.5h543q-29 97 -104.5 153t-174.5 56zM557 1468l225 -270h-256l-262 270h293z" />
    <glyph glyph-name="eacute" unicode="&#xe9;" horiz-adv-x="1204" 
d="M55 530q0 146 71.5 273t198.5 203.5t279 76.5q238 0 390.5 -159t152.5 -406v-78h-817q27 -106 107.5 -171.5t189.5 -65.5q87 0 153 32.5t125 106.5l187 -139q-80 -111 -198.5 -170.5t-264.5 -59.5q-160 0 -291.5 71.5t-207 199.5t-75.5 286zM598 854q-94 0 -164.5 -55.5
t-99.5 -153.5h543q-29 97 -104.5 153t-174.5 56zM655 1468h295l-264 -270h-254z" />
    <glyph glyph-name="ecircumflex" unicode="&#xea;" horiz-adv-x="1204" 
d="M55 530q0 146 71.5 273t198.5 203.5t279 76.5q238 0 390.5 -159t152.5 -406v-78h-817q27 -106 107.5 -171.5t189.5 -65.5q87 0 153 32.5t125 106.5l187 -139q-80 -111 -198.5 -170.5t-264.5 -59.5q-160 0 -291.5 71.5t-207 199.5t-75.5 286zM598 854q-94 0 -164.5 -55.5
t-99.5 -153.5h543q-29 97 -104.5 153t-174.5 56zM467 1198h-223l233 270h262l232 -270h-226l-139 143z" />
    <glyph glyph-name="edieresis" unicode="&#xeb;" horiz-adv-x="1204" 
d="M55 530q0 146 71.5 273t198.5 203.5t279 76.5q238 0 390.5 -159t152.5 -406v-78h-817q27 -106 107.5 -171.5t189.5 -65.5q87 0 153 32.5t125 106.5l187 -139q-80 -111 -198.5 -170.5t-264.5 -59.5q-160 0 -291.5 71.5t-207 199.5t-75.5 286zM598 854q-94 0 -164.5 -55.5
t-99.5 -153.5h543q-29 97 -104.5 153t-174.5 56zM397 1178q-62 0 -104.5 42t-42.5 105q0 61 42.5 102t104.5 41t103 -41t41 -102q0 -63 -41 -105t-103 -42zM815 1178q-62 0 -103.5 42t-41.5 105q0 61 41.5 102t103.5 41t104 -41t42 -102q0 -63 -42 -105t-104 -42z" />
    <glyph glyph-name="igrave" unicode="&#xec;" 
d="M360 1059v-1059h-268v1059h268zM178 1468l225 -270h-256l-262 270h293z" />
    <glyph glyph-name="iacute" unicode="&#xed;" 
d="M360 1059v-1059h-268v1059h268zM276 1468h295l-264 -270h-254z" />
    <glyph glyph-name="icircumflex" unicode="&#xee;" 
d="M360 1059v-1059h-268v1059h268zM88 1198h-223l233 270h262l232 -270h-225l-140 143z" />
    <glyph glyph-name="idieresis" unicode="&#xef;" 
d="M360 1059v-1059h-268v1059h268zM18 1178q-62 0 -104.5 42t-42.5 105q0 61 42.5 102t104.5 41t103 -41t41 -102q0 -63 -41 -105t-103 -42zM436 1178q-62 0 -103.5 42t-41.5 105q0 61 41.5 102t103.5 41t104 -41t42 -102q0 -63 -42 -105t-104 -42z" />
    <glyph glyph-name="eth" unicode="&#xf0;" horiz-adv-x="1212" 
d="M530 1067l-100 137l107 70q-71 44 -154 74l115 198q141 -60 250 -135l176 115l100 -137l-139 -91q254 -254 254 -604v-55q0 -300 -152 -478.5t-405 -178.5q-145 0 -266 68.5t-191 188.5t-70 265q0 132 66 246t179 181.5t245 67.5q192 0 325 -139q-37 169 -188 307z
M590 211q116 0 196 82.5t80 200.5t-80 199t-196 81q-119 0 -200 -81t-81 -199q0 -119 81.5 -201t199.5 -82z" />
    <glyph glyph-name="ntilde" unicode="&#xf1;" horiz-adv-x="1161" 
d="M1069 674v-674h-268v621q0 104 -60 165.5t-159 61.5q-100 0 -161 -61t-61 -166v-621h-268v1059h268v-90q115 118 291 118q182 0 300 -119t118 -294zM440 1448q49 0 141.5 -43t116.5 -43q25 0 42 20.5t28 73.5l168 -37q-57 -229 -217 -229q-50 0 -141 43t-115 43
q-52 0 -72 -94l-168 35q29 120 82.5 175.5t134.5 55.5z" />
    <glyph glyph-name="ograve" unicode="&#xf2;" horiz-adv-x="1273" 
d="M1219 528q0 -150 -78.5 -278.5t-212.5 -203.5t-291 -75t-291 75t-212.5 203.5t-78.5 278.5t78.5 278.5t212.5 203.5t291 75t291 -74t212.5 -202.5t78.5 -280.5zM952 528q0 134 -92 227t-223 93t-223 -93t-92 -227t92 -226.5t223 -92.5t223 92.5t92 226.5zM588 1468
l225 -270h-256l-262 270h293z" />
    <glyph glyph-name="oacute" unicode="&#xf3;" horiz-adv-x="1273" 
d="M1219 528q0 -150 -78.5 -278.5t-212.5 -203.5t-291 -75t-291 75t-212.5 203.5t-78.5 278.5t78.5 278.5t212.5 203.5t291 75t291 -74t212.5 -202.5t78.5 -280.5zM952 528q0 134 -92 227t-223 93t-223 -93t-92 -227t92 -226.5t223 -92.5t223 92.5t92 226.5zM686 1468h295
l-264 -270h-254z" />
    <glyph glyph-name="ocircumflex" unicode="&#xf4;" horiz-adv-x="1273" 
d="M1219 528q0 -150 -78.5 -278.5t-212.5 -203.5t-291 -75t-291 75t-212.5 203.5t-78.5 278.5t78.5 278.5t212.5 203.5t291 75t291 -74t212.5 -202.5t78.5 -280.5zM952 528q0 134 -92 227t-223 93t-223 -93t-92 -227t92 -226.5t223 -92.5t223 92.5t92 226.5zM498 1198h-224
l234 270h262l231 -270h-225l-139 143z" />
    <glyph glyph-name="otilde" unicode="&#xf5;" horiz-adv-x="1273" 
d="M1219 528q0 -150 -78.5 -278.5t-212.5 -203.5t-291 -75t-291 75t-212.5 203.5t-78.5 278.5t78.5 278.5t212.5 203.5t291 75t291 -74t212.5 -202.5t78.5 -280.5zM952 528q0 134 -92 227t-223 93t-223 -93t-92 -227t92 -226.5t223 -92.5t223 92.5t92 226.5zM496 1448
q49 0 141.5 -43t116.5 -43q25 0 41.5 20.5t27.5 73.5l168 -37q-57 -229 -217 -229q-50 0 -141 43t-115 43q-52 0 -72 -94l-167 35q29 120 82.5 175.5t134.5 55.5z" />
    <glyph glyph-name="odieresis" unicode="&#xf6;" horiz-adv-x="1273" 
d="M1219 528q0 -150 -78.5 -278.5t-212.5 -203.5t-291 -75t-291 75t-212.5 203.5t-78.5 278.5t78.5 278.5t212.5 203.5t291 75t291 -74t212.5 -202.5t78.5 -280.5zM952 528q0 134 -92 227t-223 93t-223 -93t-92 -227t92 -226.5t223 -92.5t223 92.5t92 226.5zM428 1178
q-62 0 -104.5 42t-42.5 105q0 61 42.5 102t104.5 41t102.5 -41t40.5 -102q0 -63 -41 -105t-102 -42zM846 1178q-62 0 -104 42t-42 105q0 61 42 102t104 41t103.5 -41t41.5 -102q0 -63 -41.5 -105t-103.5 -42z" />
    <glyph glyph-name="divide" unicode="&#xf7;" horiz-adv-x="1110" 
d="M557 1315q66 0 111 -44t45 -110t-45 -109.5t-111 -43.5t-111 43.5t-45 109.5t45 110t111 44zM1018 635h-926v209h926v-209zM557 465q66 0 111 -44t45 -110t-45 -109.5t-111 -43.5t-111 43.5t-45 109.5t45 110t111 44z" />
    <glyph glyph-name="oslash" unicode="&#xf8;" horiz-adv-x="1273" 
d="M94 0l121 145q-75 75 -117.5 174t-42.5 209q0 150 78.5 278.5t212.5 203.5t291 75q167 0 303 -79l45 53h195l-123 -146q76 -75 119 -174.5t43 -210.5q0 -150 -78.5 -278.5t-212.5 -203.5t-291 -75q-160 0 -305 82l-45 -53h-193zM322 528q0 -105 59 -188l399 475
q-67 33 -143 33q-131 0 -223 -93t-92 -227zM952 528q0 112 -59 189l-401 -473q72 -35 145 -35q131 0 223 92.5t92 226.5z" />
    <glyph glyph-name="ugrave" unicode="&#xf9;" horiz-adv-x="1161" 
d="M92 385v674h268v-621q0 -99 61 -163t159 -64q99 0 160 62.5t61 164.5v621h268v-1059h-268v94q-116 -119 -291 -119q-182 0 -300 118t-118 292zM532 1468l226 -270h-256l-262 270h292z" />
    <glyph glyph-name="uacute" unicode="&#xfa;" horiz-adv-x="1161" 
d="M92 385v674h268v-621q0 -99 61 -163t159 -64q99 0 160 62.5t61 164.5v621h268v-1059h-268v94q-116 -119 -291 -119q-182 0 -300 118t-118 292zM631 1468h295l-264 -270h-254z" />
    <glyph glyph-name="ucircumflex" unicode="&#xfb;" horiz-adv-x="1161" 
d="M92 385v674h268v-621q0 -99 61 -163t159 -64q99 0 160 62.5t61 164.5v621h268v-1059h-268v94q-116 -119 -291 -119q-182 0 -300 118t-118 292zM442 1198h-223l234 270h262l231 -270h-225l-139 143z" />
    <glyph glyph-name="udieresis" unicode="&#xfc;" horiz-adv-x="1161" 
d="M92 385v674h268v-621q0 -99 61 -163t159 -64q99 0 160 62.5t61 164.5v621h268v-1059h-268v94q-116 -119 -291 -119q-182 0 -300 118t-118 292zM373 1178q-62 0 -105 42t-43 105q0 61 43 102t105 41q61 0 102 -41t41 -102q0 -63 -41 -105t-102 -42zM791 1178
q-62 0 -104 42t-42 105q0 61 42 102t104 41t103.5 -41t41.5 -102q0 -63 -41.5 -105t-103.5 -42z" />
    <glyph glyph-name="yacute" unicode="&#xfd;" horiz-adv-x="1128" 
d="M391 -98l49 118l-450 1039h289l292 -715l289 715h279l-516 -1258q-52 -129 -124.5 -180t-197.5 -51h-158v225h103q56 0 88.5 23t56.5 84zM621 1468h294l-264 -270h-254z" />
    <glyph glyph-name="thorn" unicode="&#xfe;" horiz-adv-x="1320" 
d="M92 1434h266v-473q151 126 342 126q116 0 221 -44.5t180.5 -119.5t120 -177.5t44.5 -215.5t-44.5 -215.5t-120 -177.5t-180.5 -119.5t-221 -44.5q-190 0 -340 125v-528h-268v1864zM356 530q0 -135 94 -228t228 -93q132 0 226.5 93.5t94.5 227.5q0 133 -95 228.5
t-226 95.5q-133 0 -227.5 -95t-94.5 -229z" />
    <glyph glyph-name="ydieresis" unicode="&#xff;" horiz-adv-x="1128" 
d="M391 -98l49 118l-450 1039h289l292 -715l289 715h279l-516 -1258q-52 -129 -124.5 -180t-197.5 -51h-158v225h103q56 0 88.5 23t56.5 84zM362 1178q-62 0 -104.5 42t-42.5 105q0 61 42.5 102t104.5 41t103 -41t41 -102q0 -63 -41 -105t-103 -42zM780 1178
q-62 0 -103.5 42t-41.5 105q0 61 41.5 102t103.5 41t104 -41t42 -102q0 -63 -42 -105t-104 -42z" />
    <glyph glyph-name="Amacron" unicode="&#x100;" horiz-adv-x="1466" 
d="M872 1434l605 -1434h-295l-142 350h-622l-142 -350h-286l604 1434h278zM512 590h432l-215 536zM1006 1778v-174h-547v174h547z" />
    <glyph glyph-name="amacron" unicode="&#x101;" horiz-adv-x="1116" 
d="M899 903v121h264v-1024h-264v121q-120 -150 -334 -150q-205 0 -352 156q-145 157 -145 385q0 226 145 383q149 158 352 158q214 0 334 -150zM412 303q80 -80 202 -80q123 0 203 80q82 82 82 209q0 128 -82 207q-79 82 -203 82q-123 0 -202 -82q-80 -80 -80 -207
q0 -126 80 -209zM813 1403v-174h-547v174h547z" />
    <glyph glyph-name="Abreve" unicode="&#x102;" horiz-adv-x="1466" 
d="M872 1434l605 -1434h-295l-142 350h-622l-142 -350h-286l604 1434h278zM512 590h432l-215 536zM733 1718q128 0 174 140l174 -52q-34 -119 -128.5 -184.5t-219.5 -65.5t-219.5 65.5t-128.5 184.5l174 52q48 -140 174 -140z" />
    <glyph glyph-name="abreve" unicode="&#x103;" horiz-adv-x="1116" 
d="M899 903v121h264v-1024h-264v121q-120 -150 -334 -150q-205 0 -352 156q-145 157 -145 385q0 226 145 383q149 158 352 158q214 0 334 -150zM412 303q80 -80 202 -80q123 0 203 80q82 82 82 209q0 128 -82 207q-79 82 -203 82q-123 0 -202 -82q-80 -80 -80 -207
q0 -126 80 -209zM541 1343q128 0 174 140l174 -51q-34 -119 -128.5 -184.5t-219.5 -65.5t-219.5 65.5t-128.5 184.5l174 51q48 -140 174 -140z" />
    <glyph glyph-name="Aogonek" unicode="&#x104;" horiz-adv-x="1466" 
d="M872 1434l605 -1434q-162 -104 -162 -217q0 -44 25 -68t67 -24q45 0 82 16l27 -131q-71 -29 -142 -29q-105 0 -162 52.5t-57 134.5q0 72 35.5 135t126.5 131h-135l-142 350h-622l-142 -350h-286l604 1434h278zM512 590h432l-215 536z" />
    <glyph glyph-name="aogonek" unicode="&#x105;" horiz-adv-x="1116" 
d="M45 297q0 142 91.5 222.5t262.5 92.5l312 23v41q0 79 -51 123.5t-144 44.5q-143 0 -280 -94l-113 190q193 141 426 141q189 0 305.5 -102.5t116.5 -269.5v-416q0 -62 59 -62h55v-231q-161 -103 -161 -217q0 -44 25 -68t67 -24q45 0 82 16l26 -131q-71 -29 -141 -29
q-105 0 -162 52.5t-57 134.5q0 72 36.5 136t127.5 132q-134 12 -185 123q-56 -73 -141 -112.5t-190 -39.5q-158 0 -262.5 92t-104.5 232zM301 299q0 -55 47 -88t123 -33q100 0 170 56.5t70 136.5v67l-275 -24q-135 -12 -135 -115z" />
    <glyph glyph-name="Cacute" unicode="&#x106;" horiz-adv-x="1480" 
d="M72 719q0 203 98 372.5t273.5 269t392.5 99.5q190 0 348.5 -82.5t267.5 -226.5l-215 -158q-70 99 -175.5 157t-221.5 58q-135 0 -246.5 -61.5t-176.5 -174t-65 -253.5q0 -109 38.5 -202t105 -156t155.5 -98.5t189 -35.5q124 0 230.5 56.5t172.5 156.5l215 -157
q-106 -144 -265 -227t-351 -83q-166 0 -310 58t-244.5 157.5t-158 237t-57.5 293.5zM881 1843h295l-265 -270h-254z" />
    <glyph glyph-name="cacute" unicode="&#x107;" horiz-adv-x="1112" 
d="M322 530q0 -133 92 -227t223 -94q163 0 266 137l191 -139q-178 -234 -457 -234q-121 0 -229 44.5t-185.5 119.5t-122.5 177.5t-45 215.5t45 215.5t122.5 177t185.5 118.5t229 44q279 0 457 -233l-191 -139q-103 137 -266 137q-131 0 -223 -93t-92 -227zM680 1468h295
l-264 -270h-254z" />
    <glyph glyph-name="Ccircumflex" unicode="&#x108;" horiz-adv-x="1480" 
d="M72 719q0 203 98 372.5t273.5 269t392.5 99.5q190 0 348.5 -82.5t267.5 -226.5l-215 -158q-70 99 -175.5 157t-221.5 58q-135 0 -246.5 -61.5t-176.5 -174t-65 -253.5q0 -109 38.5 -202t105 -156t155.5 -98.5t189 -35.5q124 0 230.5 56.5t172.5 156.5l215 -157
q-106 -144 -265 -227t-351 -83q-166 0 -310 58t-244.5 157.5t-158 237t-57.5 293.5zM692 1573h-223l233 270h263l231 -270h-225l-140 143z" />
    <glyph glyph-name="ccircumflex" unicode="&#x109;" horiz-adv-x="1112" 
d="M322 530q0 -133 92 -227t223 -94q163 0 266 137l191 -139q-178 -234 -457 -234q-121 0 -229 44.5t-185.5 119.5t-122.5 177.5t-45 215.5t45 215.5t122.5 177t185.5 118.5t229 44q279 0 457 -233l-191 -139q-103 137 -266 137q-131 0 -223 -93t-92 -227zM492 1198h-224
l234 270h262l231 -270h-225l-139 143z" />
    <glyph glyph-name="Cdotaccent" unicode="&#x10a;" horiz-adv-x="1480" 
d="M72 719q0 203 98 372.5t273.5 269t392.5 99.5q190 0 348.5 -82.5t267.5 -226.5l-215 -158q-70 99 -175.5 157t-221.5 58q-135 0 -246.5 -61.5t-176.5 -174t-65 -253.5q0 -109 38.5 -202t105 -156t155.5 -98.5t189 -35.5q124 0 230.5 56.5t172.5 156.5l215 -157
q-106 -144 -265 -227t-351 -83q-166 0 -310 58t-244.5 157.5t-158 237t-57.5 293.5zM831 1552q-62 0 -103.5 42.5t-41.5 105.5q0 61 41.5 102t103.5 41t104 -41t42 -102q0 -63 -42 -105.5t-104 -42.5z" />
    <glyph glyph-name="cdotaccent" unicode="&#x10b;" horiz-adv-x="1112" 
d="M322 530q0 -133 92 -227t223 -94q163 0 266 137l191 -139q-178 -234 -457 -234q-121 0 -229 44.5t-185.5 119.5t-122.5 177.5t-45 215.5t45 215.5t122.5 177t185.5 118.5t229 44q279 0 457 -233l-191 -139q-103 137 -266 137q-131 0 -223 -93t-92 -227zM631 1178
q-62 0 -104 42t-42 105q0 61 42 102t104 41t103.5 -41t41.5 -102q0 -63 -41.5 -105t-103.5 -42z" />
    <glyph glyph-name="Ccaron" unicode="&#x10c;" horiz-adv-x="1480" 
d="M72 719q0 203 98 372.5t273.5 269t392.5 99.5q190 0 348.5 -82.5t267.5 -226.5l-215 -158q-70 99 -175.5 157t-221.5 58q-135 0 -246.5 -61.5t-176.5 -174t-65 -253.5q0 -109 38.5 -202t105 -156t155.5 -98.5t189 -35.5q124 0 230.5 56.5t172.5 156.5l215 -157
q-106 -144 -265 -227t-351 -83q-166 0 -310 58t-244.5 157.5t-158 237t-57.5 293.5zM973 1843h223l-242 -270h-243l-242 270h225l140 -145z" />
    <glyph glyph-name="ccaron" unicode="&#x10d;" horiz-adv-x="1112" 
d="M322 530q0 -133 92 -227t223 -94q163 0 266 137l191 -139q-178 -234 -457 -234q-121 0 -229 44.5t-185.5 119.5t-122.5 177.5t-45 215.5t45 215.5t122.5 177t185.5 118.5t229 44q279 0 457 -233l-191 -139q-103 137 -266 137q-131 0 -223 -93t-92 -227zM772 1468h223
l-241 -270h-244l-242 270h226l139 -145z" />
    <glyph glyph-name="Dcaron" unicode="&#x10e;" horiz-adv-x="1484" 
d="M1413 717q0 -148 -58.5 -281t-157.5 -228.5t-236.5 -151.5t-290.5 -56h-568v1434h568q153 0 290.5 -56t236.5 -151.5t157.5 -228.5t58.5 -281zM641 1192h-262v-950h262q204 0 346.5 138t142.5 337q0 200 -142 337.5t-347 137.5zM883 1843h223l-242 -270h-243l-242 270
h225l139 -145z" />
    <glyph glyph-name="dcaron" unicode="&#x10f;" horiz-adv-x="1638" 
d="M1229 0h-266v98q-152 -127 -342 -127q-116 0 -221 44.5t-180.5 119.5t-120 177.5t-44.5 215.5t44.5 215.5t120 177.5t180.5 119.5t221 44.5q191 0 340 -124v473h268v-1434zM965 528q0 135 -94 228.5t-228 93.5q-131 0 -226 -94t-95 -228q0 -133 95 -228t226 -95
q133 0 227.5 94.5t94.5 228.5zM1343 973l37 461h250l-88 -461h-199z" />
    <glyph glyph-name="Dcroat" unicode="&#x110;" horiz-adv-x="1544" 
d="M10 600v234h152v600h567q204 0 375 -95t270 -260t99 -362t-99 -362t-270 -260t-375 -95h-567v600h-152zM700 1192h-262v-358h314v-234h-314v-358h262q204 0 347 138t143 337q0 200 -142.5 337.5t-347.5 137.5z" />
    <glyph glyph-name="dslash" unicode="&#x111;" horiz-adv-x="1323" 
d="M1229 0h-266v98q-152 -127 -342 -127q-116 0 -221 44.5t-180.5 119.5t-120 177.5t-44.5 215.5t44.5 215.5t120 177.5t180.5 119.5t221 44.5q191 0 340 -124v202h-259v176h259v95h268v-95h104v-176h-104v-1163zM965 528q0 135 -94 228.5t-228 93.5q-131 0 -226 -94
t-95 -228q0 -133 95 -228t226 -95q133 0 227.5 94.5t94.5 228.5z" />
    <glyph glyph-name="Emacron" unicode="&#x112;" horiz-adv-x="1099" 
d="M102 0v1434h904v-242h-627v-354h606v-236h-606v-360h627v-242h-904zM842 1778v-174h-547v174h547z" />
    <glyph glyph-name="emacron" unicode="&#x113;" horiz-adv-x="1204" 
d="M55 530q0 146 71.5 273t198.5 203.5t279 76.5q238 0 390.5 -159t152.5 -406v-78h-817q27 -106 107.5 -171.5t189.5 -65.5q87 0 153 32.5t125 106.5l187 -139q-80 -111 -198.5 -170.5t-264.5 -59.5q-160 0 -291.5 71.5t-207 199.5t-75.5 286zM598 854q-94 0 -164.5 -55.5
t-99.5 -153.5h543q-29 97 -104.5 153t-174.5 56zM879 1403v-174h-547v174h547z" />
    <glyph glyph-name="Ebreve" unicode="&#x114;" horiz-adv-x="1099" 
d="M102 0v1434h904v-242h-627v-354h606v-236h-606v-360h627v-242h-904zM569 1718q128 0 174 140l175 -52q-34 -119 -129 -184.5t-220 -65.5t-219.5 65.5t-128.5 184.5l174 52q48 -140 174 -140z" />
    <glyph glyph-name="ebreve" unicode="&#x115;" horiz-adv-x="1204" 
d="M55 530q0 146 71.5 273t198.5 203.5t279 76.5q238 0 390.5 -159t152.5 -406v-78h-817q27 -106 107.5 -171.5t189.5 -65.5q87 0 153 32.5t125 106.5l187 -139q-80 -111 -198.5 -170.5t-264.5 -59.5q-160 0 -291.5 71.5t-207 199.5t-75.5 286zM598 854q-94 0 -164.5 -55.5
t-99.5 -153.5h543q-29 97 -104.5 153t-174.5 56zM606 1343q128 0 174 140l174 -51q-34 -119 -128.5 -184.5t-219.5 -65.5t-219.5 65.5t-128.5 184.5l174 51q48 -140 174 -140z" />
    <glyph glyph-name="Edotaccent" unicode="&#x116;" horiz-adv-x="1099" 
d="M102 0v1434h904v-242h-627v-354h606v-236h-606v-360h627v-242h-904zM569 1552q-62 0 -103.5 42.5t-41.5 105.5q0 61 41.5 102t103.5 41t104 -41t42 -102q0 -63 -42 -105.5t-104 -42.5z" />
    <glyph glyph-name="edotaccent" unicode="&#x117;" horiz-adv-x="1204" 
d="M55 530q0 146 71.5 273t198.5 203.5t279 76.5q238 0 390.5 -159t152.5 -406v-78h-817q27 -106 107.5 -171.5t189.5 -65.5q87 0 153 32.5t125 106.5l187 -139q-80 -111 -198.5 -170.5t-264.5 -59.5q-160 0 -291.5 71.5t-207 199.5t-75.5 286zM598 854q-94 0 -164.5 -55.5
t-99.5 -153.5h543q-29 97 -104.5 153t-174.5 56zM606 1178q-62 0 -103.5 42t-41.5 105q0 61 41.5 102t103.5 41t104 -41t42 -102q0 -63 -42 -105t-104 -42z" />
    <glyph glyph-name="Eogonek" unicode="&#x118;" horiz-adv-x="1099" 
d="M102 0v1434h904v-242h-627v-354h606v-236h-606v-360h627v-242q-162 -104 -162 -217q0 -44 25 -68t67 -24q45 0 82 16l26 -131q-71 -29 -141 -29q-105 0 -162 52.5t-57 134.5q0 72 35.5 135t126.5 131h-744z" />
    <glyph glyph-name="eogonek" unicode="&#x119;" horiz-adv-x="1204" 
d="M55 530q0 146 71.5 273t198.5 203.5t279 76.5q238 0 390.5 -159t152.5 -406v-78h-817q27 -106 107.5 -171.5t189.5 -65.5q87 0 153 32.5t125 106.5l187 -139q-107 -149 -285 -205q-160 -102 -160 -215q0 -44 25 -68t67 -24q45 0 82 16l27 -131q-71 -29 -141 -29
q-105 0 -162.5 52.5t-57.5 134.5q0 131 129 239q-239 5 -400 163t-161 394zM598 854q-94 0 -164.5 -55.5t-99.5 -153.5h543q-29 97 -104.5 153t-174.5 56z" />
    <glyph glyph-name="Ecaron" unicode="&#x11a;" horiz-adv-x="1099" 
d="M102 0v1434h904v-242h-627v-354h606v-236h-606v-360h627v-242h-904zM711 1843h223l-242 -270h-243l-242 270h225l139 -145z" />
    <glyph glyph-name="ecaron" unicode="&#x11b;" horiz-adv-x="1204" 
d="M55 530q0 146 71.5 273t198.5 203.5t279 76.5q238 0 390.5 -159t152.5 -406v-78h-817q27 -106 107.5 -171.5t189.5 -65.5q87 0 153 32.5t125 106.5l187 -139q-80 -111 -198.5 -170.5t-264.5 -59.5q-160 0 -291.5 71.5t-207 199.5t-75.5 286zM598 854q-94 0 -164.5 -55.5
t-99.5 -153.5h543q-29 97 -104.5 153t-174.5 56zM748 1468h223l-242 -270h-244l-241 270h225l139 -145z" />
    <glyph glyph-name="Gcircumflex" unicode="&#x11c;" horiz-adv-x="1605" 
d="M821 770h719v-111q0 -306 -197 -497t-507 -191q-333 0 -551 215q-217 217 -217 529t215 530q217 217 536 217q199 0 365.5 -90t259.5 -244l-242 -139q-52 89 -156 144t-229 55q-206 0 -338 -135q-131 -131 -131 -338q0 -203 133 -336q134 -131 357 -131q163 0 270.5 71.5
t146.5 200.5h-434v250zM698 1573h-223l234 270h262l231 -270h-225l-139 143z" />
    <glyph glyph-name="gcircumflex" unicode="&#x11d;" horiz-adv-x="1304" 
d="M1212 1059v-1100q0 -177 -109.5 -283t-289.5 -106h-297v225h236q192 0 192 185v129q-148 -119 -332 -119q-152 0 -280 73t-202.5 199.5t-74.5 276.5t75 276t203.5 199t278.5 73q189 0 334 -120v92h266zM322 539q0 -131 91.5 -222.5t221.5 -91.5t221.5 91.5t91.5 222.5
t-91.5 223t-221.5 92q-129 0 -221 -92.5t-92 -222.5zM502 1198h-223l233 270h262l232 -270h-226l-139 143z" />
    <glyph glyph-name="Gbreve" unicode="&#x11e;" horiz-adv-x="1605" 
d="M821 770h719v-111q0 -306 -197 -497t-507 -191q-333 0 -551 215q-217 217 -217 529t215 530q217 217 536 217q199 0 365.5 -90t259.5 -244l-242 -139q-52 89 -156 144t-229 55q-206 0 -338 -135q-131 -131 -131 -338q0 -203 133 -336q134 -131 357 -131q163 0 270.5 71.5
t146.5 200.5h-434v250zM838 1718q128 0 174 140l174 -52q-34 -119 -128.5 -184.5t-219.5 -65.5t-220 65.5t-129 184.5l175 52q48 -140 174 -140z" />
    <glyph glyph-name="gbreve" unicode="&#x11f;" horiz-adv-x="1304" 
d="M1212 1059v-1100q0 -177 -109.5 -283t-289.5 -106h-297v225h236q192 0 192 185v129q-148 -119 -332 -119q-152 0 -280 73t-202.5 199.5t-74.5 276.5t75 276t203.5 199t278.5 73q189 0 334 -120v92h266zM322 539q0 -131 91.5 -222.5t221.5 -91.5t221.5 91.5t91.5 222.5
t-91.5 223t-221.5 92q-129 0 -221 -92.5t-92 -222.5zM641 1343q128 0 174 140l174 -51q-34 -119 -128.5 -184.5t-219.5 -65.5t-219.5 65.5t-128.5 184.5l174 51q48 -140 174 -140z" />
    <glyph glyph-name="Gdotaccent" unicode="&#x120;" horiz-adv-x="1605" 
d="M821 770h719v-111q0 -306 -197 -497t-507 -191q-333 0 -551 215q-217 217 -217 529t215 530q217 217 536 217q199 0 365.5 -90t259.5 -244l-242 -139q-52 89 -156 144t-229 55q-206 0 -338 -135q-131 -131 -131 -338q0 -203 133 -336q134 -131 357 -131q163 0 270.5 71.5
t146.5 200.5h-434v250zM838 1552q-62 0 -104 42.5t-42 105.5q0 61 42 102t104 41t103.5 -41t41.5 -102q0 -63 -41.5 -105.5t-103.5 -42.5z" />
    <glyph glyph-name="gdotaccent" unicode="&#x121;" horiz-adv-x="1304" 
d="M1212 1059v-1100q0 -177 -109.5 -283t-289.5 -106h-297v225h236q192 0 192 185v129q-148 -119 -332 -119q-152 0 -280 73t-202.5 199.5t-74.5 276.5t75 276t203.5 199t278.5 73q189 0 334 -120v92h266zM322 539q0 -131 91.5 -222.5t221.5 -91.5t221.5 91.5t91.5 222.5
t-91.5 223t-221.5 92q-129 0 -221 -92.5t-92 -222.5zM641 1178q-62 0 -103.5 42t-41.5 105q0 61 41.5 102t103.5 41t103.5 -41t41.5 -102q0 -63 -41.5 -105t-103.5 -42z" />
    <glyph glyph-name="uni0122" unicode="&#x122;" horiz-adv-x="1605" 
d="M821 770h719v-111q0 -306 -197 -497t-507 -191q-333 0 -551 215q-217 217 -217 529t215 530q217 217 536 217q199 0 365.5 -90t259.5 -244l-242 -139q-52 89 -156 144t-229 55q-206 0 -338 -135q-131 -131 -131 -338q0 -203 133 -336q134 -131 357 -131q163 0 270.5 71.5
t146.5 200.5h-434v250zM700 -557v98q48 4 81.5 28t33.5 50q0 14 -18.5 28t-41 25.5t-41 37.5t-18.5 61q0 43 35 76.5t84 33.5q62 0 99.5 -47.5t37.5 -128.5q0 -102 -71 -178.5t-181 -83.5z" />
    <glyph glyph-name="uni0123" unicode="&#x123;" horiz-adv-x="1304" 
d="M1212 1059v-1100q0 -177 -109.5 -283t-289.5 -106h-297v225h236q192 0 192 185v129q-148 -119 -332 -119q-152 0 -280 73t-202.5 199.5t-74.5 276.5t75 276t203.5 199t278.5 73q189 0 334 -120v92h266zM322 539q0 -131 91.5 -222.5t221.5 -91.5t221.5 91.5t91.5 222.5
t-91.5 223t-221.5 92q-129 0 -221 -92.5t-92 -222.5zM745 1624v-98q-48 -4 -81 -28t-33 -50q0 -14 18.5 -28t41 -25.5t41 -37.5t18.5 -61q0 -43 -35 -76.5t-84 -33.5q-62 0 -99.5 47.5t-37.5 128.5q0 102 70.5 178.5t180.5 83.5z" />
    <glyph glyph-name="Hcircumflex" unicode="&#x124;" horiz-adv-x="1382" 
d="M377 0h-277v1434h277v-594h629v594h276v-1434h-276v598h-629v-598zM553 1573h-223l233 270h262l232 -270h-226l-139 143z" />
    <glyph glyph-name="hcircumflex" unicode="&#x125;" horiz-adv-x="1161" 
d="M360 621v-621h-268v1434h268v-467q114 120 295 120q182 0 298 -118.5t116 -294.5v-674h-268v621q0 104 -60 165.5t-159 61.5q-100 0 -161 -61t-61 -166zM86 1573h-223l233 270h262l232 -270h-225l-140 143z" />
    <glyph glyph-name="Hbar" unicode="&#x126;" horiz-adv-x="1464" 
d="M418 0h-277v1026h-131v215h131v193h277v-193h629v193h276v-193h131v-215h-131v-1026h-276v598h-629v-598zM418 840h629v186h-629v-186z" />
    <glyph glyph-name="hbar" unicode="&#x127;" horiz-adv-x="1163" 
d="M618 1163h-256v-196q114 120 295 120q182 0 298 -118.5t116 -294.5v-674h-268v621q0 104 -60 165.5t-159 61.5q-100 0 -161 -61t-61 -166v-621h-268v1163h-104v176h104v95h268v-95h256v-176z" />
    <glyph glyph-name="Itilde" unicode="&#x128;" horiz-adv-x="479" 
d="M379 0h-277v1434h277v-1434zM100 1823q49 0 141.5 -43t116.5 -43q25 0 42 20.5t28 73.5l168 -37q-57 -229 -217 -229q-50 0 -141 43t-115 43q-25 0 -43 -21t-29 -74l-168 35q29 120 82.5 176t134.5 56z" />
    <glyph glyph-name="itilde" unicode="&#x129;" 
d="M360 1059v-1059h-268v1059h268zM86 1448q49 0 141.5 -43t116.5 -43q25 0 42 20.5t28 73.5l168 -37q-57 -229 -217 -229q-50 0 -141 43t-115 43q-52 0 -72 -94l-168 35q29 120 82.5 175.5t134.5 55.5z" />
    <glyph glyph-name="Imacron" unicode="&#x12a;" horiz-adv-x="479" 
d="M379 0h-277v1434h277v-1434zM514 1778v-174h-547v174h547z" />
    <glyph glyph-name="imacron" unicode="&#x12b;" 
d="M360 1059v-1059h-268v1059h268zM500 1403v-174h-547v174h547z" />
    <glyph glyph-name="Ibreve" unicode="&#x12c;" horiz-adv-x="479" 
d="M379 0h-277v1434h277v-1434zM240 1718q128 0 174 140l174 -52q-34 -119 -128.5 -184.5t-219.5 -65.5t-220 65.5t-129 184.5l175 52q48 -140 174 -140z" />
    <glyph glyph-name="ibreve" unicode="&#x12d;" 
d="M360 1059v-1059h-268v1059h268zM227 1343q128 0 174 140l174 -51q-34 -119 -128.5 -184.5t-219.5 -65.5t-219.5 65.5t-128.5 184.5l174 51q48 -140 174 -140z" />
    <glyph glyph-name="Iogonek" unicode="&#x12e;" horiz-adv-x="479" 
d="M379 0h-4q-162 -104 -162 -217q0 -44 25 -68t67 -24q45 0 82 16l27 -131q-71 -29 -142 -29q-105 0 -162 52.5t-57 134.5q0 72 35.5 135t126.5 131h-113v1434h277v-1434z" />
    <glyph glyph-name="iogonek" unicode="&#x12f;" 
d="M227 1171q-63 0 -107 43.5t-44 106.5t44 105t107 42t105.5 -42t42.5 -105t-42.5 -106.5t-105.5 -43.5zM360 1059v-1059q-161 -103 -161 -217q0 -44 25 -68t67 -24q45 0 82 16l26 -131q-71 -29 -141 -29q-105 0 -162 52.5t-57 134.5q0 72 35.5 135t126.5 131h-109v1059
h268z" />
    <glyph glyph-name="Idot" unicode="&#x130;" horiz-adv-x="479" 
d="M379 0h-277v1434h277v-1434zM242 1552q-62 0 -104 42.5t-42 105.5q0 61 42 102t104 41t103.5 -41t41.5 -102q0 -63 -41.5 -105.5t-103.5 -42.5z" />
    <glyph glyph-name="dotlessi" unicode="&#x131;" 
d="M360 1059v-1059h-268v1059h268z" />
    <glyph glyph-name="IJ" unicode="&#x132;" horiz-adv-x="1505" 
d="M379 0h-277v1434h277v-1434zM481 117l162 198q45 -45 107 -70.5t127 -25.5q117 0 188.5 83t71.5 218v914h276v-963q0 -221 -146 -361.5t-374 -140.5q-127 0 -233 39t-179 109z" />
    <glyph glyph-name="ij" unicode="&#x133;" horiz-adv-x="905" 
d="M227 1171q-63 0 -107 43.5t-44 106.5t44 105t107 42t105.5 -42t42.5 -105t-42.5 -106.5t-105.5 -43.5zM360 1059v-1059h-268v1059h268zM680 1171q-63 0 -107.5 43.5t-44.5 106.5t44 105t108 42q63 0 105 -42t42 -105t-42 -106.5t-105 -43.5zM532 -430h-131v229h64
q38 0 59 21t21 61v1178h268v-1223q0 -110 -77.5 -188t-203.5 -78z" />
    <glyph glyph-name="Jcircumflex" unicode="&#x134;" horiz-adv-x="1026" 
d="M2 117l162 198q45 -45 106.5 -70.5t126.5 -25.5q117 0 188.5 83t71.5 218v914h277v-963q0 -221 -146 -361.5t-374 -140.5q-127 0 -233 39t-179 109zM657 1573h-223l234 270h262l231 -270h-225l-139 143z" />
    <glyph glyph-name="jcircumflex" unicode="&#x135;" 
d="M80 -430h-131v229h63q38 0 59 21t21 61v1178h268v-1223q0 -110 -77 -188t-203 -78zM88 1198h-223l233 270h262l232 -270h-225l-140 143z" />
    <glyph glyph-name="uni0136" unicode="&#x136;" horiz-adv-x="1290" 
d="M102 1434h277v-609l563 609h346l-670 -709l687 -725h-369l-557 600v-600h-277v1434zM528 -557v98q48 4 81.5 28t33.5 50q0 14 -18.5 28t-41 25.5t-41 37.5t-18.5 61q0 43 35 76.5t84 33.5q62 0 99.5 -47.5t37.5 -128.5q0 -102 -71 -178.5t-181 -83.5z" />
    <glyph glyph-name="uni0137" unicode="&#x137;" horiz-adv-x="1044" 
d="M92 1434h268v-832l369 457h307l-428 -510l459 -549h-328l-379 473v-473h-268v1434zM418 -557v98q48 4 81 28t33 50q0 14 -18.5 28t-40.5 25.5t-40.5 37.5t-18.5 61q0 44 34.5 77t83.5 33q62 0 100 -47.5t38 -128.5q0 -102 -71 -178.5t-181 -83.5z" />
    <glyph glyph-name="kgreenlandic" unicode="&#x138;" horiz-adv-x="1044" 
d="M92 1059h268v-457l369 457h307l-428 -510l459 -549h-328l-379 473v-473h-268v1059z" />
    <glyph glyph-name="Lacute" unicode="&#x139;" horiz-adv-x="1069" 
d="M1006 242v-242h-904v1434h277v-1192h627zM285 1843h295l-265 -270h-254z" />
    <glyph glyph-name="lacute" unicode="&#x13a;" 
d="M360 0h-268v1434h268v-1434zM276 1843h295l-264 -270h-254z" />
    <glyph glyph-name="uni013B" unicode="&#x13b;" horiz-adv-x="1069" 
d="M1006 242v-242h-904v1434h277v-1192h627zM446 -557v98q48 4 81.5 28t33.5 50q0 14 -18.5 28t-41 25.5t-41 37.5t-18.5 61q0 43 35 76.5t84 33.5q62 0 99.5 -47.5t37.5 -128.5q0 -102 -71 -178.5t-181 -83.5z" />
    <glyph glyph-name="uni013C" unicode="&#x13c;" 
d="M360 0h-268v1434h268v-1434zM104 -557v98q48 4 81.5 28t33.5 50q0 14 -18.5 28t-41 25.5t-41 37.5t-18.5 61q0 43 35 76.5t84 33.5q62 0 99.5 -47.5t37.5 -128.5q0 -102 -71 -178.5t-181 -83.5z" />
    <glyph glyph-name="Lcaron" unicode="&#x13d;" horiz-adv-x="1069" 
d="M1006 242v-242h-904v1434h277v-1192h627zM655 973l37 461h250l-88 -461h-199z" />
    <glyph glyph-name="lcaron" unicode="&#x13e;" horiz-adv-x="772" 
d="M360 0h-268v1434h268v-1434zM475 973l37 461h250l-88 -461h-199z" />
    <glyph glyph-name="Ldot" unicode="&#x13f;" horiz-adv-x="1069" 
d="M1006 242v-242h-904v1434h277v-1192h627zM752 596q-62 0 -104 42t-42 105q0 61 42 102.5t104 41.5t103.5 -41.5t41.5 -102.5q0 -63 -41.5 -105t-103.5 -42z" />
    <glyph glyph-name="ldot" unicode="&#x140;" horiz-adv-x="765" 
d="M360 0h-268v1434h268v-1434zM592 545q-62 0 -104 42t-42 105q0 61 42 102.5t104 41.5t103.5 -41.5t41.5 -102.5q0 -63 -41.5 -105t-103.5 -42z" />
    <glyph glyph-name="Lslash" unicode="&#x141;" horiz-adv-x="1118" 
d="M10 319v234l144 109v772h276v-564l283 215v-233l-283 -215v-395h627v-242h-903v428z" />
    <glyph glyph-name="lslash" unicode="&#x142;" horiz-adv-x="593" 
d="M20 344v231l123 111v748h269v-508l153 137v-234l-153 -137v-692h-269v453z" />
    <glyph glyph-name="Nacute" unicode="&#x143;" horiz-adv-x="1486" 
d="M358 0h-256v1434h304l724 -1055l-2 1055h256v-1434h-303l-725 1055zM793 1843h294l-264 -270h-254z" />
    <glyph glyph-name="nacute" unicode="&#x144;" horiz-adv-x="1161" 
d="M1069 674v-674h-268v621q0 104 -60 165.5t-159 61.5q-100 0 -161 -61t-61 -166v-621h-268v1059h268v-90q115 118 291 118q182 0 300 -119t118 -294zM631 1468h295l-264 -270h-254z" />
    <glyph glyph-name="uni0145" unicode="&#x145;" horiz-adv-x="1486" 
d="M358 0h-256v1434h304l724 -1055l-2 1055h256v-1434h-303l-725 1055zM621 -557v98q48 4 81 28t33 50q0 14 -18.5 28t-41 25.5t-41 37.5t-18.5 61q0 43 35 76.5t84 33.5q62 0 99.5 -47.5t37.5 -128.5q0 -102 -70.5 -178.5t-180.5 -83.5z" />
    <glyph glyph-name="uni0146" unicode="&#x146;" horiz-adv-x="1161" 
d="M1069 674v-674h-268v621q0 104 -60 165.5t-159 61.5q-100 0 -161 -61t-61 -166v-621h-268v1059h268v-90q115 118 291 118q182 0 300 -119t118 -294zM459 -557v98q48 4 81 28t33 50q0 14 -18.5 28t-40.5 25.5t-40.5 37.5t-18.5 61q0 44 34.5 77t83.5 33q62 0 100 -47.5
t38 -128.5q0 -102 -71 -178.5t-181 -83.5z" />
    <glyph glyph-name="Ncaron" unicode="&#x147;" horiz-adv-x="1486" 
d="M358 0h-256v1434h304l724 -1055l-2 1055h256v-1434h-303l-725 1055zM885 1843h223l-242 -270h-243l-242 270h225l139 -145z" />
    <glyph glyph-name="ncaron" unicode="&#x148;" horiz-adv-x="1161" 
d="M1069 674v-674h-268v621q0 104 -60 165.5t-159 61.5q-100 0 -161 -61t-61 -166v-621h-268v1059h268v-90q115 118 291 118q182 0 300 -119t118 -294zM723 1468h223l-241 -270h-244l-242 270h225l140 -145z" />
    <glyph glyph-name="Eng" unicode="&#x14a;" horiz-adv-x="1486" 
d="M1384 1434v-1629q0 -109 -71.5 -182.5t-198.5 -73.5h-139v230h63q88 0 88 82v108l-768 1084v-1053h-256v1434h304l722 -1014v1014h256z" />
    <glyph glyph-name="eng" unicode="&#x14b;" horiz-adv-x="1161" 
d="M788 -430h-131v229h64q38 0 59 21t21 61v740q0 104 -60 165.5t-159 61.5q-100 0 -161 -61t-61 -166v-621h-268v1059h268v-90q115 118 291 118q182 0 300 -119t118 -294v-838q0 -110 -77.5 -188t-203.5 -78z" />
    <glyph glyph-name="Omacron" unicode="&#x14c;" horiz-adv-x="1669" 
d="M72 717q0 204 100 374.5t276 269.5t388 99q158 0 299 -58.5t242.5 -157.5t160.5 -236.5t59 -290.5t-59 -290.5t-160.5 -237t-242.5 -158t-299 -58.5q-159 0 -301 58.5t-243.5 158t-160.5 237t-59 290.5zM354 717q0 -208 140 -349t342 -141q203 0 341 140.5t138 349.5
q0 136 -63 248.5t-173 176.5t-243 64q-202 0 -342 -141.5t-140 -347.5zM1108 1778v-174h-547v174h547z" />
    <glyph glyph-name="omacron" unicode="&#x14d;" horiz-adv-x="1273" 
d="M1219 528q0 -150 -78.5 -278.5t-212.5 -203.5t-291 -75t-291 75t-212.5 203.5t-78.5 278.5t78.5 278.5t212.5 203.5t291 75t291 -74t212.5 -202.5t78.5 -280.5zM952 528q0 134 -92 227t-223 93t-223 -93t-92 -227t92 -226.5t223 -92.5t223 92.5t92 226.5zM909 1403v-174
h-547v174h547z" />
    <glyph glyph-name="Obreve" unicode="&#x14e;" horiz-adv-x="1669" 
d="M72 717q0 204 100 374.5t276 269.5t388 99q158 0 299 -58.5t242.5 -157.5t160.5 -236.5t59 -290.5t-59 -290.5t-160.5 -237t-242.5 -158t-299 -58.5q-159 0 -301 58.5t-243.5 158t-160.5 237t-59 290.5zM354 717q0 -208 140 -349t342 -141q203 0 341 140.5t138 349.5
q0 136 -63 248.5t-173 176.5t-243 64q-202 0 -342 -141.5t-140 -347.5zM836 1718q128 0 174 140l174 -52q-34 -119 -128.5 -184.5t-219.5 -65.5t-220 65.5t-129 184.5l175 52q48 -140 174 -140z" />
    <glyph glyph-name="obreve" unicode="&#x14f;" horiz-adv-x="1273" 
d="M1219 528q0 -150 -78.5 -278.5t-212.5 -203.5t-291 -75t-291 75t-212.5 203.5t-78.5 278.5t78.5 278.5t212.5 203.5t291 75t291 -74t212.5 -202.5t78.5 -280.5zM952 528q0 134 -92 227t-223 93t-223 -93t-92 -227t92 -226.5t223 -92.5t223 92.5t92 226.5zM637 1343
q128 0 174 140l174 -51q-34 -119 -128.5 -184.5t-219.5 -65.5t-219.5 65.5t-128.5 184.5l174 51q48 -140 174 -140z" />
    <glyph glyph-name="Ohungarumlaut" unicode="&#x150;" horiz-adv-x="1669" 
d="M72 717q0 204 100 374.5t276 269.5t388 99q158 0 299 -58.5t242.5 -157.5t160.5 -236.5t59 -290.5t-59 -290.5t-160.5 -237t-242.5 -158t-299 -58.5q-159 0 -301 58.5t-243.5 158t-160.5 237t-59 290.5zM354 717q0 -208 140 -349t342 -141q203 0 341 140.5t138 349.5
q0 136 -63 248.5t-173 176.5t-243 64q-202 0 -342 -141.5t-140 -347.5zM676 1843h262l-252 -270h-229zM1081 1843h262l-251 -270h-230z" />
    <glyph glyph-name="ohungarumlaut" unicode="&#x151;" horiz-adv-x="1273" 
d="M1219 528q0 -150 -78.5 -278.5t-212.5 -203.5t-291 -75t-291 75t-212.5 203.5t-78.5 278.5t78.5 278.5t212.5 203.5t291 75t291 -74t212.5 -202.5t78.5 -280.5zM952 528q0 134 -92 227t-223 93t-223 -93t-92 -227t92 -226.5t223 -92.5t223 92.5t92 226.5zM477 1468h262
l-252 -270h-229zM883 1468h262l-252 -270h-229z" />
    <glyph glyph-name="OE" unicode="&#x152;" horiz-adv-x="2060" 
d="M72 717q0 148 58.5 281t157.5 228.5t236.5 151.5t290.5 56h1153v-242h-629v-354h609v-236h-609v-360h629v-242h-1153q-153 0 -290.5 56t-236.5 151.5t-157.5 228.5t-58.5 281zM844 242h219v950h-219q-206 0 -348 -138t-142 -337q0 -132 65 -241t177.5 -171.5t247.5 -62.5
z" />
    <glyph glyph-name="oe" unicode="&#x153;" horiz-adv-x="2105" 
d="M1530 -27q-138 0 -253 53.5t-194 151.5q-80 -98 -196 -152.5t-250 -54.5q-157 0 -291 74.5t-212.5 203.5t-78.5 281q0 150 78.5 278t212.5 202.5t291 74.5q133 0 250 -54.5t196 -149.5q75 94 184.5 148t237.5 54q238 0 390.5 -159t152.5 -406v-78h-817
q27 -106 107.5 -171.5t189.5 -65.5q87 0 153 32.5t125 106.5l187 -139q-80 -111 -198.5 -170.5t-264.5 -59.5zM1499 854q-94 0 -164.5 -55.5t-99.5 -153.5h543q-29 97 -104.5 153t-174.5 56zM954 530q0 132 -92.5 225t-224.5 93q-131 0 -223 -93t-92 -225q0 -135 92 -228
t223 -93q132 0 224.5 93t92.5 228z" />
    <glyph glyph-name="Racute" unicode="&#x154;" horiz-adv-x="1220" 
d="M1186 0h-305l-289 498h-215v-498h-283v1434h574q198 0 338 -140q139 -139 139 -336q0 -133 -76 -246.5t-201 -170.5zM668 1169h-291v-424h291q80 0 137 62.5t57 150.5q0 87 -57 149t-137 62zM662 1843h294l-264 -270h-254z" />
    <glyph glyph-name="racute" unicode="&#x155;" horiz-adv-x="720" 
d="M682 823h-96q-100 0 -163 -67t-63 -187v-569h-268v1059h266v-115q86 125 252 125h72v-246zM485 1468h295l-264 -270h-254z" />
    <glyph glyph-name="uni0156" unicode="&#x156;" horiz-adv-x="1220" 
d="M1186 0h-305l-289 498h-215v-498h-283v1434h574q198 0 338 -140q139 -139 139 -336q0 -133 -76 -246.5t-201 -170.5zM668 1169h-291v-424h291q80 0 137 62.5t57 150.5q0 87 -57 149t-137 62zM516 -557v98q48 4 81.5 28t33.5 50q0 14 -18.5 28t-41 25.5t-41 37.5t-18.5 61
q0 43 35 76.5t84 33.5q62 0 99.5 -47.5t37.5 -128.5q0 -102 -71 -178.5t-181 -83.5z" />
    <glyph glyph-name="uni0157" unicode="&#x157;" horiz-adv-x="720" 
d="M682 823h-96q-100 0 -163 -67t-63 -187v-569h-268v1059h266v-115q86 125 252 125h72v-246zM111 -557v98q48 4 81 28t33 50q0 14 -18.5 28t-41 25.5t-41 37.5t-18.5 61q0 43 35 76.5t84 33.5q62 0 99.5 -47.5t37.5 -128.5q0 -102 -70.5 -178.5t-180.5 -83.5z" />
    <glyph glyph-name="Rcaron" unicode="&#x158;" horiz-adv-x="1220" 
d="M1186 0h-305l-289 498h-215v-498h-283v1434h574q198 0 338 -140q139 -139 139 -336q0 -133 -76 -246.5t-201 -170.5zM668 1169h-291v-424h291q80 0 137 62.5t57 150.5q0 87 -57 149t-137 62zM752 1843h223l-242 -270h-244l-241 270h225l139 -145z" />
    <glyph glyph-name="rcaron" unicode="&#x159;" horiz-adv-x="720" 
d="M682 823h-96q-100 0 -163 -67t-63 -187v-569h-268v1059h266v-115q86 125 252 125h72v-246zM578 1468h223l-242 -270h-244l-241 270h225l139 -145z" />
    <glyph glyph-name="Sacute" unicode="&#x15a;" horiz-adv-x="1222" 
d="M623 -29q-211 0 -357 94t-207 261l242 141q83 -219 330 -219q114 0 171.5 41t57.5 110q0 77 -67 117q-66 42 -242 92q-103 31 -167.5 59.5t-129.5 73.5q-135 101 -135 295q0 197 137 310q137 116 334 116q172 0 305 -84t207 -237l-238 -137q-85 184 -274 184
q-87 0 -138 -40t-51 -104q0 -66 56 -110q59 -41 217 -90l98 -33q18 -5 92 -35q59 -21 90 -43q39 -25 78.5 -59.5t57.5 -67.5q53 -84 53 -203q0 -196 -146 -315q-144 -117 -374 -117zM655 1843h295l-264 -270h-254z" />
    <glyph glyph-name="sacute" unicode="&#x15b;" horiz-adv-x="970" 
d="M365 733q0 -38 48 -63.5t138 -48.5q51 -11 94 -24.5t91 -39.5t81 -59t55 -84.5t21 -114.5q0 -159 -119 -244q-119 -84 -293 -84q-316 0 -430 244l230 129q47 -133 200 -133q142 0 142 88q0 38 -48.5 64t-138.5 49q-55 14 -95 27t-90 39t-81.5 57.5t-53.5 81t-22 110.5
q0 153 111 238q113 88 278 88q125 0 227 -56.5t162 -160.5l-225 -123q-49 104 -164 104q-52 0 -85 -23t-33 -61zM510 1468h295l-264 -270h-254z" />
    <glyph glyph-name="Scircumflex" unicode="&#x15c;" horiz-adv-x="1222" 
d="M623 -29q-211 0 -357 94t-207 261l242 141q83 -219 330 -219q114 0 171.5 41t57.5 110q0 77 -67 117q-66 42 -242 92q-103 31 -167.5 59.5t-129.5 73.5q-135 101 -135 295q0 197 137 310q137 116 334 116q172 0 305 -84t207 -237l-238 -137q-85 184 -274 184
q-87 0 -138 -40t-51 -104q0 -66 56 -110q59 -41 217 -90l98 -33q18 -5 92 -35q59 -21 90 -43q39 -25 78.5 -59.5t57.5 -67.5q53 -84 53 -203q0 -196 -146 -315q-144 -117 -374 -117zM467 1573h-223l233 270h262l232 -270h-226l-139 143z" />
    <glyph glyph-name="scircumflex" unicode="&#x15d;" horiz-adv-x="970" 
d="M365 733q0 -38 48 -63.5t138 -48.5q51 -11 94 -24.5t91 -39.5t81 -59t55 -84.5t21 -114.5q0 -159 -119 -244q-119 -84 -293 -84q-316 0 -430 244l230 129q47 -133 200 -133q142 0 142 88q0 38 -48.5 64t-138.5 49q-55 14 -95 27t-90 39t-81.5 57.5t-53.5 81t-22 110.5
q0 153 111 238q113 88 278 88q125 0 227 -56.5t162 -160.5l-225 -123q-49 104 -164 104q-52 0 -85 -23t-33 -61zM322 1198h-224l234 270h262l231 -270h-225l-139 143z" />
    <glyph glyph-name="uni015E" unicode="&#x15e;" horiz-adv-x="1222" 
d="M68 444h268q18 -113 95 -176t208 -63q118 0 180 48.5t62 129.5q0 63 -47 109.5t-129 66.5l-244 62q-193 50 -287 149.5t-94 259.5q0 192 140.5 310t354.5 118q220 0 367.5 -127t177.5 -332h-270q-24 109 -93.5 169.5t-183.5 60.5q-97 0 -158 -47t-61 -131
q0 -67 44 -108.5t132 -65.5l242 -64q202 -54 292.5 -150t90.5 -257q0 -175 -125.5 -293.5t-335.5 -135.5l-24 -67q80 -11 127 -57t47 -117q0 -86 -69.5 -144.5t-172.5 -58.5q-79 0 -144 27.5t-102 77.5l107 88q56 -62 127 -62q41 0 66.5 22t25.5 52q0 34 -27 54t-69 20h-88
l55 168q-204 25 -336 150.5t-149 313.5z" />
    <glyph glyph-name="uni015F" unicode="&#x15f;" horiz-adv-x="970" 
d="M711 -264q0 -86 -69.5 -144.5t-172.5 -58.5q-79 0 -144 27.5t-102 77.5l107 88q56 -62 127 -62q41 0 66.5 22t25.5 52q0 34 -27 54t-69 20h-88l55 172q-161 24 -261.5 118t-127.5 232h254q19 -77 82 -114.5t153 -37.5q72 0 112 30t40 79q0 33 -27 59t-80 39l-219 51
q-297 70 -297 312q0 150 111 241.5t284 91.5q197 0 318 -100.5t147 -261.5h-252q-19 77 -80.5 116.5t-134.5 39.5q-63 0 -97 -28t-34 -71q0 -82 127 -112l203 -50q291 -70 291 -307q0 -138 -100.5 -230t-272.5 -104l-22 -67q80 -11 127 -57t47 -117z" />
    <glyph glyph-name="Scaron" unicode="&#x160;" horiz-adv-x="1222" 
d="M623 -29q-211 0 -357 94t-207 261l242 141q83 -219 330 -219q114 0 171.5 41t57.5 110q0 77 -67 117q-66 42 -242 92q-103 31 -167.5 59.5t-129.5 73.5q-135 101 -135 295q0 197 137 310q137 116 334 116q172 0 305 -84t207 -237l-238 -137q-85 184 -274 184
q-87 0 -138 -40t-51 -104q0 -66 56 -110q59 -41 217 -90l98 -33q18 -5 92 -35q59 -21 90 -43q39 -25 78.5 -59.5t57.5 -67.5q53 -84 53 -203q0 -196 -146 -315q-144 -117 -374 -117zM748 1843h223l-242 -270h-244l-241 270h225l139 -145z" />
    <glyph glyph-name="scaron" unicode="&#x161;" horiz-adv-x="970" 
d="M365 733q0 -38 48 -63.5t138 -48.5q51 -11 94 -24.5t91 -39.5t81 -59t55 -84.5t21 -114.5q0 -159 -119 -244q-119 -84 -293 -84q-316 0 -430 244l230 129q47 -133 200 -133q142 0 142 88q0 38 -48.5 64t-138.5 49q-55 14 -95 27t-90 39t-81.5 57.5t-53.5 81t-22 110.5
q0 153 111 238q113 88 278 88q125 0 227 -56.5t162 -160.5l-225 -123q-49 104 -164 104q-52 0 -85 -23t-33 -61zM602 1468h223l-241 -270h-244l-242 270h226l139 -145z" />
    <glyph glyph-name="uni0162" unicode="&#x162;" horiz-adv-x="1241" 
d="M41 1192v242h1159v-242h-442v-1192h-62l-32 -90q80 -11 127 -57t47 -117q0 -86 -69.5 -144.5t-172.5 -58.5q-79 0 -144 27.5t-102 77.5l107 88q56 -62 127 -62q41 0 66.5 22t25.5 52q0 34 -27 54t-69 20h-88l61 188h-72v1192h-440z" />
    <glyph glyph-name="uni0163" unicode="&#x163;" horiz-adv-x="749" 
d="M20 827v232h207v307h267v-307h233v-232h-233v-514q0 -82 100 -82h133v-231h-154l-32 -90q80 -11 127 -57t47 -117q0 -86 -69.5 -144.5t-172.5 -58.5q-79 0 -144 27.5t-102 77.5l107 88q56 -62 127 -62q41 0 66.5 22t25.5 52q0 34 -27 54t-69 20h-88l63 196
q-101 23 -153 91t-52 167v561h-207z" />
    <glyph glyph-name="Tcaron" unicode="&#x164;" horiz-adv-x="1241" 
d="M41 1192v242h1159v-242h-442v-1192h-277v1192h-440zM762 1843h223l-242 -270h-243l-242 270h225l140 -145z" />
    <glyph glyph-name="tcaron" unicode="&#x165;" horiz-adv-x="749" 
d="M727 0h-209q-142 0 -216.5 73t-74.5 193v561h-207v232h207v307h267v-307h233v-232h-233v-514q0 -82 100 -82h133v-231zM606 1182l37 460h250l-88 -460h-199z" />
    <glyph glyph-name="Tbar" unicode="&#x166;" horiz-adv-x="1241" 
d="M225 569v234h256v389h-440v242h1159v-242h-442v-389h258v-234h-258v-569h-277v569h-256z" />
    <glyph glyph-name="tbar" unicode="&#x167;" horiz-adv-x="749" 
d="M20 444v215h207v168h-207v232h207v307h267v-307h233v-232h-233v-168h233v-215h-233v-131q0 -82 100 -82h133v-231h-209q-142 0 -216.5 73t-74.5 193v178h-207z" />
    <glyph glyph-name="Utilde" unicode="&#x168;" horiz-adv-x="1380" 
d="M668 -29q-241 0 -394 135t-153 363v965h280v-942q0 -116 67 -180t200 -64t199.5 64t66.5 180v942h283v-965q0 -227 -154 -363q-153 -135 -395 -135zM545 1823q49 0 141.5 -43t116.5 -43q25 0 41.5 20.5t27.5 73.5l168 -37q-57 -229 -217 -229q-50 0 -141 43t-115 43
q-25 0 -42.5 -21t-28.5 -74l-168 35q29 120 82.5 176t134.5 56z" />
    <glyph glyph-name="utilde" unicode="&#x169;" horiz-adv-x="1161" 
d="M92 385v674h268v-621q0 -99 61 -163t159 -64q99 0 160 62.5t61 164.5v621h268v-1059h-268v94q-116 -119 -291 -119q-182 0 -300 118t-118 292zM440 1448q49 0 141.5 -43t116.5 -43q25 0 42 20.5t28 73.5l168 -37q-57 -229 -217 -229q-50 0 -141 43t-115 43q-52 0 -72 -94
l-168 35q29 120 82.5 175.5t134.5 55.5z" />
    <glyph glyph-name="Umacron" unicode="&#x16a;" horiz-adv-x="1380" 
d="M668 -29q-241 0 -394 135t-153 363v965h280v-942q0 -116 67 -180t200 -64t199.5 64t66.5 180v942h283v-965q0 -227 -154 -363q-153 -135 -395 -135zM958 1778v-174h-546v174h546z" />
    <glyph glyph-name="umacron" unicode="&#x16b;" horiz-adv-x="1161" 
d="M92 385v674h268v-621q0 -99 61 -163t159 -64q99 0 160 62.5t61 164.5v621h268v-1059h-268v94q-116 -119 -291 -119q-182 0 -300 118t-118 292zM854 1403v-174h-547v174h547z" />
    <glyph glyph-name="Ubreve" unicode="&#x16c;" horiz-adv-x="1380" 
d="M668 -29q-241 0 -394 135t-153 363v965h280v-942q0 -116 67 -180t200 -64t199.5 64t66.5 180v942h283v-965q0 -227 -154 -363q-153 -135 -395 -135zM686 1718q128 0 174 140l174 -52q-34 -119 -128.5 -184.5t-219.5 -65.5t-219.5 65.5t-128.5 184.5l174 52
q48 -140 174 -140z" />
    <glyph glyph-name="ubreve" unicode="&#x16d;" horiz-adv-x="1161" 
d="M92 385v674h268v-621q0 -99 61 -163t159 -64q99 0 160 62.5t61 164.5v621h268v-1059h-268v94q-116 -119 -291 -119q-182 0 -300 118t-118 292zM582 1343q128 0 174 140l174 -51q-34 -119 -128.5 -184.5t-219.5 -65.5t-220 65.5t-129 184.5l175 51q48 -140 174 -140z" />
    <glyph glyph-name="Uring" unicode="&#x16e;" horiz-adv-x="1380" 
d="M668 -29q-241 0 -394 135t-153 363v965h280v-942q0 -116 67 -180t200 -64t199.5 64t66.5 180v942h283v-965q0 -227 -154 -363q-153 -135 -395 -135zM686 1536q-99 0 -167 66.5t-68 164.5q0 95 68.5 161.5t166.5 66.5t167 -66.5t69 -161.5q0 -97 -69 -164t-167 -67z
M686 1653q47 0 80 33.5t33 80.5q0 45 -33 77t-80 32t-80 -32t-33 -77q0 -47 33 -80.5t80 -33.5z" />
    <glyph glyph-name="uring" unicode="&#x16f;" horiz-adv-x="1161" 
d="M92 385v674h268v-621q0 -99 61 -163t159 -64q99 0 160 62.5t61 164.5v621h268v-1059h-268v94q-116 -119 -291 -119q-182 0 -300 118t-118 292zM582 1161q-99 0 -167.5 67t-68.5 165q0 95 69 161t167 66t166.5 -66t68.5 -161q0 -97 -68.5 -164.5t-166.5 -67.5zM582 1278
q47 0 79.5 33.5t32.5 81.5q0 45 -32.5 76.5t-79.5 31.5t-80 -32t-33 -76q0 -47 33 -81t80 -34z" />
    <glyph glyph-name="Uhungarumlaut" unicode="&#x170;" horiz-adv-x="1380" 
d="M668 -29q-241 0 -394 135t-153 363v965h280v-942q0 -116 67 -180t200 -64t199.5 64t66.5 180v942h283v-965q0 -227 -154 -363q-153 -135 -395 -135zM526 1843h262l-251 -270h-230zM932 1843h262l-252 -270h-229z" />
    <glyph glyph-name="uhungarumlaut" unicode="&#x171;" horiz-adv-x="1161" 
d="M92 385v674h268v-621q0 -99 61 -163t159 -64q99 0 160 62.5t61 164.5v621h268v-1059h-268v94q-116 -119 -291 -119q-182 0 -300 118t-118 292zM422 1468h262l-252 -270h-229zM827 1468h263l-252 -270h-230z" />
    <glyph glyph-name="Uogonek" unicode="&#x172;" horiz-adv-x="1380" 
d="M369 1434v-873q0 -153 90 -248.5t227 -95.5q136 0 225.5 96t89.5 248v873h277v-1434q-162 -104 -162 -217q0 -44 25 -68t67 -24q45 0 82 16l27 -131q-71 -29 -141 -29q-105 0 -162.5 52.5t-57.5 134.5q0 72 35.5 135t126.5 131h-114v102q-153 -131 -353 -131
q-242 0 -400.5 158.5t-158.5 413.5v891h277z" />
    <glyph glyph-name="uogonek" unicode="&#x173;" horiz-adv-x="1161" 
d="M92 385v674h268v-621q0 -99 61 -163t159 -64q99 0 160 62.5t61 164.5v621h268v-1059q-162 -104 -162 -217q0 -44 25 -68t67 -24q45 0 82 16l27 -131q-71 -29 -141 -29q-105 0 -162 52.5t-57 134.5q0 72 35 135t126 131h-108v94q-116 -119 -291 -119q-182 0 -300 118
t-118 292z" />
    <glyph glyph-name="Wcircumflex" unicode="&#x174;" horiz-adv-x="2078" 
d="M1167 1434l340 -1035l265 1035h286l-407 -1434h-279l-332 1016l-333 -1016h-279l-408 1434h297l265 -1037l340 1037h245zM899 1573h-223l233 270h262l232 -270h-225l-140 143z" />
    <glyph glyph-name="wcircumflex" unicode="&#x175;" horiz-adv-x="1605" 
d="M698 1059h217l230 -668l186 668h275l-322 -1059h-244l-237 690l-238 -690h-243l-322 1059h283l186 -668zM664 1198h-224l234 270h262l231 -270h-225l-139 143z" />
    <glyph glyph-name="Ycircumflex" unicode="&#x176;" horiz-adv-x="1380" 
d="M827 0h-276v598l-561 836h336l368 -576l369 576h328l-564 -840v-594zM551 1573h-223l233 270h262l232 -270h-226l-139 143z" />
    <glyph glyph-name="ycircumflex" unicode="&#x177;" horiz-adv-x="1128" 
d="M391 -98l49 118l-450 1039h289l292 -715l289 715h279l-516 -1258q-52 -129 -124.5 -180t-197.5 -51h-158v225h103q56 0 88.5 23t56.5 84zM432 1198h-223l233 270h263l231 -270h-225l-140 143z" />
    <glyph glyph-name="Ydieresis" unicode="&#x178;" horiz-adv-x="1380" 
d="M827 0h-276v598l-561 836h336l368 -576l369 576h328l-564 -840v-594zM481 1552q-62 0 -104.5 42.5t-42.5 105.5q0 61 42.5 102t104.5 41t103 -41t41 -102q0 -63 -41.5 -105.5t-102.5 -42.5zM899 1552q-62 0 -103.5 42.5t-41.5 105.5q0 61 41.5 102t103.5 41t103.5 -41
t41.5 -102q0 -63 -41.5 -105.5t-103.5 -42.5z" />
    <glyph glyph-name="Zacute" unicode="&#x179;" horiz-adv-x="1216" 
d="M96 1192v242h1049v-185l-725 -1007h727v-242h-1084v180l728 1012h-695zM659 1843h295l-264 -270h-254z" />
    <glyph glyph-name="zacute" unicode="&#x17a;" horiz-adv-x="970" 
d="M63 827v232h842v-199l-518 -629h533v-231h-867v193l527 634h-517zM537 1468h294l-264 -270h-254z" />
    <glyph glyph-name="Zdotaccent" unicode="&#x17b;" horiz-adv-x="1216" 
d="M96 1192v242h1049v-185l-725 -1007h727v-242h-1084v180l728 1012h-695zM610 1552q-62 0 -103.5 42.5t-41.5 105.5q0 61 41.5 102t103.5 41t104 -41t42 -102q0 -63 -42 -105.5t-104 -42.5z" />
    <glyph glyph-name="zdotaccent" unicode="&#x17c;" horiz-adv-x="970" 
d="M63 827v232h842v-199l-518 -629h533v-231h-867v193l527 634h-517zM487 1178q-62 0 -103.5 42t-41.5 105q0 61 41.5 102t103.5 41t104 -41t42 -102q0 -63 -42 -105t-104 -42z" />
    <glyph glyph-name="Zcaron" unicode="&#x17d;" horiz-adv-x="1216" 
d="M96 1192v242h1049v-185l-725 -1007h727v-242h-1084v180l728 1012h-695zM752 1843h223l-242 -270h-244l-241 270h225l139 -145z" />
    <glyph glyph-name="zcaron" unicode="&#x17e;" horiz-adv-x="970" 
d="M63 827v232h842v-199l-518 -629h533v-231h-867v193l527 634h-517zM629 1468h223l-242 -270h-243l-242 270h225l139 -145z" />
    <glyph glyph-name="florin" unicode="&#x192;" horiz-adv-x="759" 
d="M729 827h-246l-147 -991q-19 -117 -87.5 -191.5t-191.5 -74.5h-182v229h121q36 0 55 20t25 62l141 946h-186v232h221l29 188q41 266 282 266h201v-231h-154q-31 0 -47 -17t-22 -55l-23 -151h211v-232z" />
    <glyph glyph-name="uni0218" unicode="&#x218;" horiz-adv-x="1222" 
d="M623 -29q-211 0 -357 94t-207 261l242 141q83 -219 330 -219q114 0 171.5 41t57.5 110q0 77 -67 117q-66 42 -242 92q-103 31 -167.5 59.5t-129.5 73.5q-135 101 -135 295q0 197 137 310q137 116 334 116q172 0 305 -84t207 -237l-238 -137q-85 184 -274 184
q-87 0 -138 -40t-51 -104q0 -66 56 -110q59 -41 217 -90l98 -33q18 -5 92 -35q59 -21 90 -43q39 -25 78.5 -59.5t57.5 -67.5q53 -84 53 -203q0 -196 -146 -315q-144 -117 -374 -117zM504 -557v98q48 4 81 28t33 50q0 14 -18.5 28t-40.5 25.5t-40.5 37.5t-18.5 61
q0 44 34.5 77t83.5 33q62 0 100 -47.5t38 -128.5q0 -102 -71 -178.5t-181 -83.5z" />
    <glyph glyph-name="uni0219" unicode="&#x219;" horiz-adv-x="970" 
d="M365 733q0 -38 48 -63.5t138 -48.5q51 -11 94 -24.5t91 -39.5t81 -59t55 -84.5t21 -114.5q0 -159 -119 -244q-119 -84 -293 -84q-316 0 -430 244l230 129q47 -133 200 -133q142 0 142 88q0 38 -48.5 64t-138.5 49q-55 14 -95 27t-90 39t-81.5 57.5t-53.5 81t-22 110.5
q0 153 111 238q113 88 278 88q125 0 227 -56.5t162 -160.5l-225 -123q-49 104 -164 104q-52 0 -85 -23t-33 -61zM373 -557v98q48 4 81 28t33 50q0 14 -18.5 28t-40.5 25.5t-40.5 37.5t-18.5 61q0 44 34.5 77t83.5 33q62 0 100 -47.5t38 -128.5q0 -102 -71 -178.5t-181 -83.5
z" />
    <glyph glyph-name="uni021A" unicode="&#x21a;" horiz-adv-x="1241" 
d="M41 1192v242h1159v-242h-442v-1192h-277v1192h-440zM500 -557v98q48 4 81 28t33 50q0 14 -18.5 28t-40.5 25.5t-40.5 37.5t-18.5 61q0 44 34.5 77t83.5 33q62 0 100 -47.5t38 -128.5q0 -102 -71 -178.5t-181 -83.5z" />
    <glyph glyph-name="uni021B" unicode="&#x21b;" horiz-adv-x="749" 
d="M727 0h-209q-142 0 -216.5 73t-74.5 193v561h-207v232h207v307h267v-307h233v-232h-233v-514q0 -82 100 -82h133v-231zM377 -557v98q48 4 81.5 28t33.5 50q0 14 -18.5 28t-41 25.5t-41 37.5t-18.5 61q0 43 35 76.5t84 33.5q62 0 99.5 -47.5t37.5 -128.5
q0 -102 -71 -178.5t-181 -83.5z" />
    <glyph glyph-name="uni0237" unicode="&#x237;" 
d="M80 -430h-131v229h63q38 0 59 21t21 61v1178h268v-1223q0 -110 -77 -188t-203 -78z" />
    <glyph glyph-name="circumflex" unicode="&#x2c6;" horiz-adv-x="1044" 
d="M383 1198h-223l233 270h262l232 -270h-225l-140 143z" />
    <glyph glyph-name="caron" unicode="&#x2c7;" horiz-adv-x="1044" 
d="M664 1468h223l-242 -270h-244l-241 270h225l139 -145z" />
    <glyph glyph-name="breve" unicode="&#x2d8;" horiz-adv-x="1044" 
d="M522 1343q128 0 174 140l174 -51q-34 -119 -128.5 -184.5t-219.5 -65.5t-219.5 65.5t-128.5 184.5l174 51q48 -140 174 -140z" />
    <glyph glyph-name="dotaccent" unicode="&#x2d9;" horiz-adv-x="565" 
d="M283 1178q-62 0 -104 42t-42 105q0 61 42 102t104 41t103.5 -41t41.5 -102q0 -63 -41.5 -105t-103.5 -42z" />
    <glyph glyph-name="ring" unicode="&#x2da;" horiz-adv-x="1044" 
d="M522 1161q-99 0 -167 67t-68 165q0 95 68.5 161t166.5 66t167 -66t69 -161q0 -97 -69 -164.5t-167 -67.5zM522 1278q47 0 80 34t33 81q0 44 -33 76t-80 32t-79.5 -31.5t-32.5 -76.5q0 -48 32.5 -81.5t79.5 -33.5z" />
    <glyph glyph-name="ogonek" unicode="&#x2db;" horiz-adv-x="1044" 
d="M557 41l98 -41q-161 -103 -161 -217q0 -44 25 -68t67 -24q45 0 82 16l26 -131q-71 -29 -141 -29q-105 0 -162 52.5t-57 134.5t49 156t174 151z" />
    <glyph glyph-name="tilde" unicode="&#x2dc;" horiz-adv-x="1044" 
d="M381 1448q49 0 141.5 -43t116.5 -43q25 0 42 20.5t28 73.5l168 -37q-57 -229 -218 -229q-50 0 -141 43t-115 43q-25 0 -42.5 -20.5t-28.5 -73.5l-168 35q29 120 82.5 175.5t134.5 55.5z" />
    <glyph glyph-name="hungarumlaut" unicode="&#x2dd;" horiz-adv-x="1095" 
d="M387 1468h262l-252 -270h-229zM793 1468h262l-252 -270h-230z" />
    <glyph glyph-name="uni09F3" unicode="&#x9f3;" horiz-adv-x="1370" 
d="M465 774v-383q0 -95 61.5 -148t157.5 -53q154 0 262.5 108.5t108.5 266.5q0 96 -49.5 164t-118.5 68q-43 0 -115 -29l-76 227q115 47 197 47q116 0 211.5 -64.5t150 -173.5t54.5 -239q0 -122 -49.5 -232.5t-133.5 -190.5t-202 -127.5t-250 -47.5q-203 0 -334 112
t-131 294v401h-146v215h146v125q0 80 -80 80h-66v240h144q123 0 190.5 -72t67.5 -182v-191h129v-215h-129z" />
    <glyph glyph-name="Wgrave" unicode="&#x1e80;" horiz-adv-x="2078" 
d="M1167 1434l340 -1035l265 1035h286l-407 -1434h-279l-332 1016l-333 -1016h-279l-408 1434h297l265 -1037l340 1037h245zM989 1843l225 -270h-256l-262 270h293z" />
    <glyph glyph-name="wgrave" unicode="&#x1e81;" horiz-adv-x="1605" 
d="M698 1059h217l230 -668l186 668h275l-322 -1059h-244l-237 690l-238 -690h-243l-322 1059h283l186 -668zM754 1468l225 -270h-256l-262 270h293z" />
    <glyph glyph-name="Wacute" unicode="&#x1e82;" horiz-adv-x="2078" 
d="M1167 1434l340 -1035l265 1035h286l-407 -1434h-279l-332 1016l-333 -1016h-279l-408 1434h297l265 -1037l340 1037h245zM1087 1843h295l-264 -270h-254z" />
    <glyph glyph-name="wacute" unicode="&#x1e83;" horiz-adv-x="1605" 
d="M698 1059h217l230 -668l186 668h275l-322 -1059h-244l-237 690l-238 -690h-243l-322 1059h283l186 -668zM852 1468h295l-264 -270h-254z" />
    <glyph glyph-name="Wdieresis" unicode="&#x1e84;" horiz-adv-x="2078" 
d="M1167 1434l340 -1035l265 1035h286l-407 -1434h-279l-332 1016l-333 -1016h-279l-408 1434h297l265 -1037l340 1037h245zM829 1552q-62 0 -104.5 42.5t-42.5 105.5q0 61 42.5 102t104.5 41t103 -41t41 -102q0 -63 -41.5 -105.5t-102.5 -42.5zM1247 1552
q-62 0 -103.5 42.5t-41.5 105.5q0 61 41.5 102t103.5 41t104 -41t42 -102q0 -63 -42 -105.5t-104 -42.5z" />
    <glyph glyph-name="wdieresis" unicode="&#x1e85;" horiz-adv-x="1605" 
d="M698 1059h217l230 -668l186 668h275l-322 -1059h-244l-237 690l-238 -690h-243l-322 1059h283l186 -668zM594 1178q-62 0 -105 42t-43 105q0 61 43 102t105 41t102.5 -41t40.5 -102q0 -63 -41 -105t-102 -42zM1012 1178q-62 0 -104 42t-42 105q0 61 42 102t104 41
t103.5 -41t41.5 -102q0 -63 -41.5 -105t-103.5 -42z" />
    <glyph glyph-name="Ygrave" unicode="&#x1ef2;" horiz-adv-x="1380" 
d="M827 0h-276v598l-561 836h336l368 -576l369 576h328l-564 -840v-594zM641 1843l225 -270h-256l-262 270h293z" />
    <glyph glyph-name="ygrave" unicode="&#x1ef3;" horiz-adv-x="1128" 
d="M391 -98l49 118l-450 1039h289l292 -715l289 715h279l-516 -1258q-52 -129 -124.5 -180t-197.5 -51h-158v225h103q56 0 88.5 23t56.5 84zM522 1468l226 -270h-256l-263 270h293z" />
    <glyph glyph-name="uni2002" unicode="&#x2002;" horiz-adv-x="1024" 
 />
    <glyph glyph-name="uni2003" unicode="&#x2003;" horiz-adv-x="2048" 
 />
    <glyph glyph-name="uni2009" unicode="&#x2009;" horiz-adv-x="358" 
 />
    <glyph glyph-name="uni200A" unicode="&#x200a;" horiz-adv-x="204" 
 />
    <glyph glyph-name="uni200B" unicode="&#x200b;" horiz-adv-x="0" 
 />
    <glyph glyph-name="endash" unicode="&#x2013;" horiz-adv-x="1202" 
d="M61 500v225h1078v-225h-1078z" />
    <glyph glyph-name="emdash" unicode="&#x2014;" horiz-adv-x="1650" 
d="M61 500v225h1528v-225h-1528z" />
    <glyph glyph-name="uni2015" unicode="&#x2015;" horiz-adv-x="2060" 
d="M61 500v225h1938v-225h-1938z" />
    <glyph glyph-name="quoteleft" unicode="&#x2018;" 
d="M365 1499v-129q-60 -10 -99 -46t-39 -79q0 -18 15.5 -31.5t38 -25t45 -26t38 -43t15.5 -68.5q0 -56 -41 -102t-105 -46q-82 0 -130 61.5t-48 165.5q0 139 85.5 241.5t224.5 127.5z" />
    <glyph glyph-name="quoteright" unicode="&#x2019;" 
d="M86 907v129q60 10 98.5 46t38.5 79q0 18 -15.5 31.5t-37.5 25t-44.5 26.5t-38 43.5t-15.5 68.5q0 56 40.5 101.5t104.5 45.5q82 0 130 -61.5t48 -165.5q0 -139 -85 -241.5t-224 -127.5z" />
    <glyph glyph-name="quotesinglbase" unicode="&#x201a;" 
d="M86 -309v129q60 10 98.5 46t38.5 79q0 18 -15.5 31.5t-37.5 25t-44.5 26t-38 43t-15.5 68.5q0 56 40.5 102t104.5 46q82 0 130 -62t48 -166q0 -139 -85 -241t-224 -127z" />
    <glyph glyph-name="quotedblleft" unicode="&#x201c;" horiz-adv-x="843" 
d="M365 1499v-129q-60 -10 -99 -46t-39 -79q0 -18 15.5 -31.5t38 -25t45 -26t38 -43t15.5 -68.5q0 -56 -41 -102t-105 -46q-82 0 -130 61.5t-48 165.5q0 139 85.5 241.5t224.5 127.5zM758 1499v-129q-60 -10 -98.5 -46t-38.5 -79q0 -18 15.5 -31.5t37.5 -25t44.5 -26t38 -43
t15.5 -68.5q0 -56 -40.5 -102t-104.5 -46q-82 0 -130 61.5t-48 165.5q0 139 85 241.5t224 127.5z" />
    <glyph glyph-name="quotedblright" unicode="&#x201d;" horiz-adv-x="843" 
d="M479 907v129q60 10 98.5 46t38.5 79q0 18 -15.5 31.5t-38 25t-44.5 26.5t-37.5 43.5t-15.5 68.5q0 56 40.5 101.5t104.5 45.5q82 0 130 -61.5t48 -165.5q0 -139 -85 -241.5t-224 -127.5zM86 907v129q60 10 98.5 46t38.5 79q0 18 -15.5 31.5t-37.5 25t-44.5 26.5t-38 43.5
t-15.5 68.5q0 56 40.5 101.5t104.5 45.5q82 0 130 -61.5t48 -165.5q0 -139 -85 -241.5t-224 -127.5z" />
    <glyph glyph-name="quotedblbase" unicode="&#x201e;" horiz-adv-x="843" 
d="M479 -309v129q60 10 98.5 46t38.5 79q0 18 -15.5 31.5t-38 25t-44.5 26t-37.5 43t-15.5 68.5q0 56 40.5 102t104.5 46q82 0 130 -62t48 -166q0 -139 -85 -241t-224 -127zM86 -309v129q60 10 98.5 46t38.5 79q0 18 -15.5 31.5t-37.5 25t-44.5 26t-38 43t-15.5 68.5
q0 56 40.5 102t104.5 46q82 0 130 -62t48 -166q0 -139 -85 -241t-224 -127z" />
    <glyph glyph-name="dagger" unicode="&#x2020;" horiz-adv-x="876" 
d="M334 0v856h-250v203h250v375h213v-375h248v-203h-248v-856h-213z" />
    <glyph glyph-name="daggerdbl" unicode="&#x2021;" horiz-adv-x="876" 
d="M334 0v375h-250v203h250v278h-250v203h250v375h213v-375h248v-203h-248v-278h248v-203h-248v-375h-213z" />
    <glyph glyph-name="bullet" unicode="&#x2022;" horiz-adv-x="634" 
d="M319 934q107 0 180.5 -73t73.5 -179q0 -107 -73.5 -180.5t-180.5 -73.5q-106 0 -182 73.5t-76 180.5q0 105 76 178.5t182 73.5z" />
    <glyph glyph-name="ellipsis" unicode="&#x2026;" horiz-adv-x="1314" 
d="M225 287q66 0 111 -44t45 -110t-45 -109.5t-111 -43.5t-110.5 43.5t-44.5 109.5t44.5 110t110.5 44zM657 287q66 0 111 -44t45 -110t-45 -109.5t-111 -43.5t-110.5 43.5t-44.5 109.5t44.5 110t110.5 44zM1087 287q66 0 111 -44t45 -110t-45 -109.5t-111 -43.5
t-110.5 43.5t-44.5 109.5t44.5 110t110.5 44z" />
    <glyph glyph-name="guilsinglleft" unicode="&#x2039;" horiz-adv-x="843" 
d="M801 1059l-479 -524l485 -535h-283l-489 530l489 529h277z" />
    <glyph glyph-name="guilsinglright" unicode="&#x203a;" horiz-adv-x="843" 
d="M10 0l479 524l-485 535h283l489 -531l-489 -528h-277z" />
    <glyph glyph-name="fraction" unicode="&#x2044;" horiz-adv-x="1148" 
d="M289 0h-203l770 1434h203z" />
    <glyph glyph-name="uni2070" unicode="&#x2070;" horiz-adv-x="751" 
d="M68 934v213q0 140 84.5 222.5t222.5 82.5t223.5 -82.5t85.5 -222.5v-213q0 -140 -85.5 -223.5t-223.5 -83.5t-222.5 83.5t-84.5 223.5zM504 940v201q0 74 -34 113.5t-95 39.5q-60 0 -93.5 -40t-33.5 -113v-201q0 -77 33 -115.5t94 -38.5t95 39t34 115z" />
    <glyph glyph-name="uni2074" unicode="&#x2074;" horiz-adv-x="753" 
d="M430 645v186h-377v136l320 467h237v-453h86v-150h-86v-186h-180zM240 981h190v287z" />
    <glyph glyph-name="uni2075" unicode="&#x2075;" horiz-adv-x="706" 
d="M387 1161q112 0 183 -71.5t71 -176.5q0 -121 -83 -203.5t-214 -82.5q-213 0 -297 164l148 81q49 -90 139 -90q58 0 92.5 34t34.5 87q0 47 -33.5 79t-93.5 32q-37 0 -61.5 -11t-51.5 -38l-149 24l18 445h492v-158h-336l-4 -170q58 55 145 55z" />
    <glyph glyph-name="uni2076" unicode="&#x2076;" horiz-adv-x="733" 
d="M399 1298q-65 0 -109 -52.5t-44 -151.5v-21q49 105 174 105q103 0 176.5 -76.5t73.5 -177.5q0 -129 -80.5 -210t-202.5 -81q-148 0 -233.5 101t-85.5 274v51q0 189 87.5 289t243.5 100q81 0 139 -23t115 -73l-106 -115q-64 61 -148 61zM379 784q51 0 87 36t36 89
t-35.5 87t-87.5 34t-87.5 -34t-35.5 -87q0 -54 34.5 -89.5t88.5 -35.5z" />
    <glyph glyph-name="uni2077" unicode="&#x2077;" horiz-adv-x="696" 
d="M641 1298l-319 -653h-211l331 631h-387v158h586v-136z" />
    <glyph glyph-name="uni2078" unicode="&#x2078;" horiz-adv-x="741" 
d="M371 627q-129 0 -214 69.5t-85 175.5q0 65 38.5 112t106.5 71q-55 24 -87 68t-32 100q0 94 78.5 159.5t194.5 65.5t194 -65.5t78 -159.5q0 -56 -31 -100.5t-86 -69.5q65 -24 104.5 -72t39.5 -109q0 -106 -85 -175.5t-214 -69.5zM371 1118q41 0 69.5 26t28.5 62
q0 38 -28 64t-70 26q-41 0 -70 -26t-29 -64q0 -36 29 -62t70 -26zM371 979q-49 0 -83 -30t-34 -72q0 -41 33.5 -69t83.5 -28q51 0 84.5 28t33.5 69q0 42 -34.5 72t-83.5 30z" />
    <glyph glyph-name="uni2079" unicode="&#x2079;" horiz-adv-x="733" 
d="M346 782q60 0 99.5 52t39.5 151v16q-48 -100 -174 -100q-103 0 -175.5 76t-72.5 180q0 128 81 208.5t204 80.5q146 0 231 -101t85 -274v-51q0 -189 -83.5 -289t-232.5 -100q-100 0 -167 37.5t-113 111.5l143 84q58 -82 135 -82zM356 1294q-54 0 -89.5 -35.5t-35.5 -89.5
q0 -53 35 -86.5t90 -33.5q51 0 86 33.5t35 86.5q0 54 -35 89.5t-86 35.5z" />
    <glyph glyph-name="uni2080" unicode="&#x2080;" horiz-adv-x="751" 
d="M68 289v213q0 140 84.5 222.5t222.5 82.5t223.5 -82.5t85.5 -222.5v-213q0 -140 -85.5 -223.5t-223.5 -83.5t-222.5 83.5t-84.5 223.5zM504 295v201q0 74 -34 113.5t-95 39.5q-60 0 -93.5 -40t-33.5 -113v-201q0 -77 33 -115.5t94 -38.5t95 39t34 115z" />
    <glyph glyph-name="uni2081" unicode="&#x2081;" horiz-adv-x="622" 
d="M578 158v-158h-535v158h176v473h-139v157h319v-630h179z" />
    <glyph glyph-name="uni2082" unicode="&#x2082;" horiz-adv-x="675" 
d="M604 559q2 -62 -24 -118.5t-97 -127.5l-159 -161l294 6v-158h-550v117l284 291q41 43 56.5 74t15.5 65q0 46 -31.5 74t-79.5 28q-80 0 -139 -102l-143 82q94 174 297 174q125 0 200.5 -69t75.5 -175z" />
    <glyph glyph-name="uni2083" unicode="&#x2083;" horiz-adv-x="716" 
d="M358 803q113 0 190 -64t77 -157q0 -53 -30 -96t-85 -70q63 -24 102 -74.5t39 -112.5q0 -104 -84.5 -175.5t-214.5 -71.5q-217 0 -307 163l148 80q52 -88 153 -88q56 0 89.5 29.5t33.5 73.5q0 37 -29.5 62.5t-77.5 25.5h-124v145h110q42 0 69 25.5t27 62.5
q0 39 -28.5 63.5t-77.5 24.5q-85 0 -135 -88l-148 76q88 166 303 166z" />
    <glyph glyph-name="uni2084" unicode="&#x2084;" horiz-adv-x="753" 
d="M430 0v186h-377v136l320 466h237v-452h86v-150h-86v-186h-180zM240 336h190v287z" />
    <glyph glyph-name="uni2085" unicode="&#x2085;" horiz-adv-x="706" 
d="M387 516q112 0 183 -71.5t71 -176.5q0 -121 -83 -203.5t-214 -82.5q-214 0 -297 163l148 82q49 -90 139 -90q58 0 92.5 34.5t34.5 86.5q0 47 -33.5 79t-93.5 32q-37 0 -61.5 -11.5t-51.5 -38.5l-149 25l18 444h492v-157h-336l-4 -170q58 55 145 55z" />
    <glyph glyph-name="uni2086" unicode="&#x2086;" horiz-adv-x="733" 
d="M399 653q-65 0 -109 -52.5t-44 -151.5v-21q48 104 174 104q103 0 176.5 -76t73.5 -177q0 -129 -80.5 -210t-202.5 -81q-148 0 -233.5 100.5t-85.5 273.5v52q0 189 87.5 289t243.5 100q81 0 139 -23t115 -73l-106 -115q-64 61 -148 61zM379 139q51 0 87 35.5t36 89.5
q0 53 -35.5 87t-87.5 34t-87.5 -34t-35.5 -87q0 -54 34.5 -89.5t88.5 -35.5z" />
    <glyph glyph-name="uni2087" unicode="&#x2087;" horiz-adv-x="696" 
d="M641 653l-319 -653h-211l331 631h-387v157h586v-135z" />
    <glyph glyph-name="uni2088" unicode="&#x2088;" horiz-adv-x="741" 
d="M371 -18q-129 0 -214 69.5t-85 175.5q0 65 38.5 112t106.5 71q-55 24 -87 68t-32 100q0 94 78.5 159.5t194.5 65.5t194 -65.5t78 -159.5q0 -56 -31 -100.5t-86 -69.5q65 -24 104.5 -72t39.5 -109q0 -106 -85 -175.5t-214 -69.5zM371 473q41 0 69.5 26t28.5 62
q0 38 -28 64t-70 26q-41 0 -70 -26t-29 -64q0 -36 29 -62t70 -26zM371 334q-49 0 -83 -30.5t-34 -72.5q0 -41 33.5 -68.5t83.5 -27.5q51 0 84.5 27.5t33.5 68.5q0 42 -34.5 72.5t-83.5 30.5z" />
    <glyph glyph-name="uni2089" unicode="&#x2089;" horiz-adv-x="733" 
d="M346 137q60 0 99.5 52t39.5 151v16q-48 -100 -174 -100q-103 0 -175.5 76t-72.5 180q0 128 81 208.5t204 80.5q146 0 231 -101t85 -274v-51q0 -189 -83.5 -289t-232.5 -100q-100 0 -167 37.5t-113 111.5l143 84q58 -82 135 -82zM356 649q-54 0 -89.5 -35.5t-35.5 -89.5
t35.5 -87.5t89.5 -33.5q51 0 86 34t35 87q0 54 -35 89.5t-86 35.5z" />
    <glyph glyph-name="uni20A9" unicode="&#x20a9;" horiz-adv-x="2099" 
d="M27 655h225l-35 123h-190v168h143l-139 488h297l116 -488h336l152 488h244l151 -488h338l117 488h286l-139 -488h144v-168h-191l-37 -123h228v-168h-275l-139 -487h-277l-149 487h-367l-149 -487h-279l-139 487h-272v168zM1008 946h84l-41 135zM514 655h176l39 123h-244z
M920 655h260l-37 123h-187zM1417 655h176l31 123h-246zM555 487l37 -153l47 153h-84zM1468 487l48 -153l38 153h-86z" />
    <glyph glyph-name="Euro" unicode="&#x20ac;" horiz-adv-x="1509" 
d="M27 655h184q-2 23 -2 64t2 59h-184v168h209q59 237 230 375.5t413 138.5q163 0 294 -62.5t267 -201.5l-211 -170q-85 97 -169 140.5t-188 43.5q-128 0 -217.5 -68t-130.5 -196h475l-65 -168h-442q-3 -27 -3 -59q0 -29 3 -64h397l-62 -168h-303q43 -124 131.5 -191
t216.5 -67q99 0 183 43.5t170 141.5l213 -168q-133 -139 -267.5 -202.5t-296.5 -63.5q-236 0 -405 137t-231 370h-211v168z" />
    <glyph glyph-name="uni20B9" unicode="&#x20b9;" horiz-adv-x="1280" 
d="M1061 0h-309l-652 575v144h369q82 0 139.5 42t83.5 113h-594v203h594q-25 74 -82.5 115t-140.5 41h-369v201h1100v-201h-336q55 -70 76 -156h260v-203h-258q-32 -152 -156 -249t-288 -97h-31z" />
    <glyph glyph-name="trademark" unicode="&#x2122;" horiz-adv-x="1386" 
d="M659 1434h170l150 -387l149 387h170v-572h-131l4 373l-143 -373h-98l-144 367l2 -367h-129v572zM51 1434h520v-115h-192v-457h-139v457h-189v115z" />
    <glyph glyph-name="uni2190" unicode="&#x2190;" horiz-adv-x="2050" 
d="M162 717l555 768h299l-469 -639h1339v-258h-1339l469 -639h-299z" />
    <glyph glyph-name="uni2191" unicode="&#x2191;" horiz-adv-x="2048" 
d="M1024 1554l768 -555v-299l-639 469v-1339h-258v1339l-639 -469v299z" />
    <glyph glyph-name="uni2192" unicode="&#x2192;" horiz-adv-x="2050" 
d="M1034 1485h289l561 -768l-561 -768h-289l473 645h-1345v246h1345z" />
    <glyph glyph-name="uni2193" unicode="&#x2193;" horiz-adv-x="2048" 
d="M1792 561v-289l-768 -561l-768 561v289l645 -473v1346h246v-1346z" />
    <glyph glyph-name="minus" unicode="&#x2212;" horiz-adv-x="1110" 
d="M1018 840v-209h-926v209h926z" />
    <glyph glyph-name="approxequal" unicode="&#x2248;" horiz-adv-x="1110" 
d="M315 881q-54 0 -103.5 -18t-117.5 -58v188q118 74 232 74q51 0 116.5 -19t118.5 -42.5t120 -42.5t120 -19q51 0 97.5 18t119.5 60v-188q-118 -74 -230 -74q-53 0 -119 19t-119 41.5t-118.5 41.5t-116.5 19zM315 522q-55 0 -105 -18t-116 -58v191q124 72 232 72
q51 0 116.5 -19t118.5 -42.5t120 -42.5t120 -19q51 0 97.5 18t119.5 60v-189q-118 -74 -230 -74q-53 0 -119 19t-119 41.5t-118.5 41.5t-116.5 19z" />
    <glyph glyph-name="notequal" unicode="&#x2260;" horiz-adv-x="1110" 
d="M82 223l166 232h-156v186h289l121 170h-410v184h541l166 232h231l-166 -232h154v-184h-285l-121 -170h406v-186h-539l-166 -232h-231z" />
    <glyph glyph-name="lessequal" unicode="&#x2264;" horiz-adv-x="1146" 
d="M975 1096l-623 -250l623 -254v-225l-864 376v197l864 377v-221zM111 578l864 -377v-209l-864 377v209z" />
    <glyph glyph-name="greaterequal" unicode="&#x2265;" horiz-adv-x="1146" 
d="M111 1090v227l866 -377v-197l-866 -376v219l624 252zM977 578v-209l-866 -377v209z" />
    <glyph glyph-name="check" unicode="&#x2713;" horiz-adv-x="2052" 
d="M1880 1450v-358l-1110 -1108l-598 596v358l598 -596z" />
    <glyph glyph-name="close" unicode="&#x2715;" horiz-adv-x="2052" 
d="M1802 1307l-596 -590l596 -590l-186 -186l-590 596l-590 -596l-186 186l596 590l-596 590l186 186l590 -596l590 596z" />
    <glyph glyph-name="fi" unicode="&#xfb01;" horiz-adv-x="1191" 
d="M20 827v232h209v198q0 109 74.5 182.5t204.5 73.5h416v-231h-359q-69 0 -69 -72v-151h602v-1059h-267v827h-335v-827h-267v827h-209z" />
    <glyph glyph-name="fl" unicode="&#xfb02;" horiz-adv-x="1191" 
d="M20 827v232h209v198q0 109 74.5 182.5t204.5 73.5h590v-1513h-267v1282h-266q-69 0 -69 -72v-151h227v-232h-227v-827h-267v827h-209z" />
    <glyph glyph-name="_1" horiz-adv-x="0" 
 />
    <glyph glyph-name="CR" horiz-adv-x="681" 
 />
    <glyph glyph-name="Uber" horiz-adv-x="4339" 
d="M113 866v15q113 6 198 0q8 -55 8 -203h-16q-15 153 -190 188zM330 78h-217v8q87 20 146.5 78.5t66.5 132.5h16zM338 862v19h278v-19q-118 6 -71 -80l164 -409q14 -34 21.5 -51t18 -29t16.5 -12t20 12t26 29t35 51l18 -4l-151 -328q-45 109 -85.5 210t-67.5 171.5
t-50 134.5t-38 104.5t-27.5 76t-22 55t-17.5 34.5t-18.5 21t-21 9.5t-27.5 4.5zM25 475v17q104 26 114 137l19 4l4 -299h-23q-6 57 -34.5 89.5t-79.5 51.5zM850 881h274v-15q-13 -1 -25.5 -5t-24.5 -14.5t-21 -18t-21 -26t-18.5 -28t-18.5 -34t-17 -34.5t-18.5 -39
t-17.5 -38h-12q13 52 17.5 92t-1 75.5t-30 53.5t-66.5 16v15zM1186 37v182h22v-160h97v-22h-119zM1358 59h106v-22h-129v182h125v-22h-102v-58h92v-22h-92v-58zM1538 37v160h-61v22h149v-22h-61v-160h-27zM1679 209q0 -4 -4 -16l-12 -37h-14l10 41q-14 0 -14 12q0 18 18 18
q16 0 16 -18zM1706 59l10 19q22 -19 58 -19q43 0 43 27q0 14 -17.5 21.5t-38 10t-38 14.5t-17.5 34q0 24 18 38.5t54 14.5t57 -18l-10 -19q-21 15 -47 15q-22 0 -33.5 -8t-11.5 -19q0 -15 17 -23t38 -11t38 -15.5t17 -34.5q0 -21 -17.5 -35t-51.5 -14q-46 0 -68 22zM2068 68
v61h27v-70q-22 -22 -65 -22q-44 0 -71.5 24t-27.5 64q0 41 28 67.5t71 26.5q45 0 65 -26l-14 -19q-26 23 -51 23q-31 0 -51.5 -20.5t-20.5 -51.5q0 -27 21 -46.5t51 -19.5q17 0 38 9zM2290 37h-27l-41 57q-3 0 -6 -2t-6 -2h-39v-53h-27v182h66q36 0 56 -16.5t20 -46.5
q0 -43 -41 -58zM2263 156q0 18 -14 29.5t-39 11.5h-39v-84h39q53 0 53 43zM2312 125q0 41 26.5 67.5t69.5 26.5q41 0 67 -26.5t26 -67.5q0 -36 -26.5 -62t-66.5 -26q-42 0 -69 26t-27 62zM2474 125q0 31 -18.5 51.5t-47.5 20.5q-30 0 -50.5 -20.5t-20.5 -51.5q0 -26 21 -46
t50 -20t47.5 19.5t18.5 46.5zM2761 219h26l-61 -182h-27l-49 141l-47 -141h-27l-57 182h23l47 -147l53 147h22l50 -147zM2925 37v160h-62v22h150v-22h-62v-160h-26zM3023 125q0 41 25.5 67.5t66.5 26.5q43 0 69.5 -26.5t26.5 -67.5q0 -36 -27 -62t-69 -26q-40 0 -66 26
t-26 62zM3185 125q0 31 -20.5 51.5t-49.5 20.5q-30 0 -49 -20.5t-19 -51.5q0 -27 19 -46.5t49 -19.5q29 0 49.5 19.5t20.5 46.5zM3371 68v61h27v-70q-22 -22 -68 -22q-43 0 -69.5 23.5t-26.5 64.5t26.5 67.5t69.5 26.5q48 0 68 -26l-15 -19q-26 23 -53 23q-29 0 -49.5 -20.5
t-20.5 -51.5q0 -27 20.5 -46.5t49.5 -19.5q26 0 41 9zM3471 59h103v-22h-129v182h125v-22h-99v-58h90v-22h-90v-58zM3650 37v160h-58v22h146v-22h-62v-160h-26zM3891 219h27v-182h-27v80h-100v-80h-27v182h27v-80h100v80zM3998 59h100v-22h-127v182h123v-22h-96v-58h88v-22
h-88v-58zM4289 37h-31l-35 57q-3 0 -7 -2t-7 -2h-43v-53h-27v182h70q36 0 55.5 -16.5t19.5 -46.5q0 -44 -38 -58zM4258 156q0 18 -13 29.5t-36 11.5h-43v-84h43q49 0 49 43zM1171 311q171 4 779 4l194 4h193h393h389h195l194 -4q605 0 776 -4q-127 0 -385.5 -2t-390.5 -2
h-194h-195h-389h-393h-193h-194q-175 4 -779 4zM1468 709h17v-111h-17q-6 32 -18 35q-8 8 -43 8h-121v-166q0 -16 10 -26q4 -7 27 -7h84q45 0 57 7q17 6 31 16l23 41h16l-23 -84h-340v12q34 0 46 15q8 19 8 57v291q0 44 -8 57q-12 18 -46 18v13h340v-80h-8q-14 40 -22 45
q-12 12 -58 12h-137v-198h133q28 0 35 10q14 6 14 35zM1663 717h12v-58q51 58 103 58q41 0 69 -31q31 -25 31 -76v-127q0 -35 10 -41q3 -8 39 -8v-12h-153v12q33 0 38 4q9 15 9 31v152q0 30 -17 47q-18 18 -49 18q-41 0 -80 -57v-142q0 -40 8 -45q5 -8 41 -8v-12h-155v12
q33 0 41 8q8 13 8 45v164q0 27 -8 35t-41 8v15zM2034 717h16v-58q51 58 102 58q42 0 70 -31q31 -31 31 -76v-127q0 -35 10 -41q3 -8 39 -8v-12h-154v12q31 0 35 4q12 15 12 31v152q0 31 -16 47q-18 18 -49 18q-41 0 -80 -57v-142q0 -39 10 -45q3 -8 39 -8v-12h-153v12
q31 0 39 8q8 13 8 45v164q0 27 -8 35q-11 8 -39 8v15zM2542 885h135v-13q-50 0 -84 -94l-142 -366h-12l-145 381q-2 5 -5.5 14t-5 13t-4.5 10.5t-5 9.5t-4.5 7.5t-5 6.5t-5.5 4q-17 14 -41 14v13h168v-13q-39 0 -39 -32q0 -4 2 -10.5t2 -10.5l115 -301l110 287q9 21 9 31
q0 36 -43 36v13zM2687 709l96 8h15v-242q0 -24 12 -33q6 -8 35 -8v-12h-158v12q40 0 43 8q14 8 14 33v176q0 18 -10 35q-11 8 -47 8v15zM2771 862q14 0 27 -8q8 -8 8 -27q0 -14 -8 -22q-15 -12 -27 -12q-15 0 -27 12q-10 10 -10 22q0 17 10 27q13 8 27 8zM3066 717h14v-88
h-18q-11 41 -23 53q-28 16 -49 16q-22 0 -35 -8q-12 -12 -12 -31q0 -18 12 -30q6 -13 54 -31q59 -34 65 -45q18 -21 18 -53q0 -36 -26 -62q-29 -26 -66 -26q-11 0 -49 14q-9 4 -22 4q-9 0 -13 -4t-4 -14h-18v98h18q6 -39 31 -61q30 -23 61 -23q23 0 35 12q15 26 15 37
q0 17 -15 35q-10 17 -57 35q-57 29 -66 45q-18 10 -18 43q0 30 27 57t61 27q22 0 41 -8q12 -4 20 -4q13 0 19 12zM3131 709l99 8h12v-242q0 -23 10 -33q8 -8 39 -8v-12h-160v12q37 0 45 8q9 6 9 33v176q0 26 -9 35q-8 8 -45 8v15zM3215 862q15 0 23 -8q14 -11 14 -27
t-14 -22q-6 -12 -23 -12t-26 12q-16 9 -8 22q-10 13 8 27q11 8 26 8zM3654 563q0 -65 -45 -110q-47 -41 -115 -41t-115 41q-43 43 -43 110q0 65 43 111q53 43 115 43t115 -43q45 -45 45 -111zM3592 563q0 60 -26 96q-26 39 -72 39t-70 -34q-26 -39 -26 -101q0 -65 26 -98
q23 -39 70 -39q46 0 72 39q26 36 26 98zM3781 717h14v-58q58 58 104 58q37 0 68 -31q31 -25 31 -76v-127q0 -30 8 -41q10 -8 41 -8v-12h-156v12q29 0 41 4q8 13 8 31v152q0 29 -18 47q-15 18 -43 18q-45 0 -84 -57v-142q0 -34 8 -45q3 -8 39 -8v-12h-154v12q33 0 46 8
q4 12 4 45v164q0 28 -11 35q-8 8 -39 8v15zM4258 717h14v-88h-18q0 30 -23 53q-28 16 -49 16q-22 0 -35 -8q-12 -12 -12 -31q0 -18 12 -30q13 -13 53 -31q56 -29 72 -45q12 -24 12 -53q0 -36 -26 -62q-29 -26 -62 -26q-13 0 -53 14q-5 4 -22 4q-9 0 -13 -4t-4 -14h-14v98h14
q6 -39 31 -61q30 -23 61 -23q23 0 35 12q15 26 15 37q0 17 -15 35q-10 17 -57 35q-50 29 -66 45q-14 11 -14 43t22 57q27 27 66 27q18 0 37 -8q5 -4 20 -4q13 0 19 12z" />
    <glyph glyph-name="idotaccent" 
d="M227 1171q-63 0 -107 43.5t-44 106.5t44 105t107 42t105.5 -42t42.5 -105t-42.5 -106.5t-105.5 -43.5zM360 1059v-1059h-268v1059h268z" />
    <glyph glyph-name="cordinal" horiz-adv-x="815" 
d="M264 1051q0 -87 57.5 -146t141.5 -59q106 0 172 88l156 -115q-65 -82 -141.5 -124t-186.5 -42q-177 0 -297.5 115.5t-120.5 282.5q0 166 120 280.5t298 114.5q110 0 186.5 -42t141.5 -124l-156 -115q-66 88 -172 88q-85 0 -142 -58t-57 -144z" />
    <glyph glyph-name="a.school" horiz-adv-x="1320" 
d="M1227 0h-264v98q-152 -127 -342 -127q-116 0 -221 44.5t-180.5 119.5t-120 177.5t-44.5 215.5t44.5 215.5t120 177.5t180.5 119.5t221 44.5q191 0 340 -124v98h266v-1059zM965 528q0 135 -94 228.5t-228 93.5q-131 0 -226 -94t-95 -228q0 -133 95 -228t226 -95
q133 0 227.5 94.5t94.5 228.5z" />
    <glyph glyph-name="aacute.school" horiz-adv-x="1320" 
d="M1227 0h-264v98q-152 -127 -342 -127q-116 0 -221 44.5t-180.5 119.5t-120 177.5t-44.5 215.5t44.5 215.5t120 177.5t180.5 119.5t221 44.5q191 0 340 -124v98h266v-1059zM965 528q0 135 -94 228.5t-228 93.5q-131 0 -226 -94t-95 -228q0 -133 95 -228t226 -95
q133 0 227.5 94.5t94.5 228.5zM702 1468h295l-264 -270h-254z" />
    <glyph glyph-name="abreve.school" horiz-adv-x="1320" 
d="M1227 0h-264v98q-152 -127 -342 -127q-116 0 -221 44.5t-180.5 119.5t-120 177.5t-44.5 215.5t44.5 215.5t120 177.5t180.5 119.5t221 44.5q191 0 340 -124v98h266v-1059zM965 528q0 135 -94 228.5t-228 93.5q-131 0 -226 -94t-95 -228q0 -133 95 -228t226 -95
q133 0 227.5 94.5t94.5 228.5zM653 1343q128 0 174 140l174 -51q-34 -119 -128.5 -184.5t-219.5 -65.5t-219.5 65.5t-128.5 184.5l174 51q48 -140 174 -140z" />
    <glyph glyph-name="acircumflex.school" horiz-adv-x="1320" 
d="M1227 0h-264v98q-152 -127 -342 -127q-116 0 -221 44.5t-180.5 119.5t-120 177.5t-44.5 215.5t44.5 215.5t120 177.5t180.5 119.5t221 44.5q191 0 340 -124v98h266v-1059zM965 528q0 135 -94 228.5t-228 93.5q-131 0 -226 -94t-95 -228q0 -133 95 -228t226 -95
q133 0 227.5 94.5t94.5 228.5zM514 1198h-223l233 270h262l232 -270h-225l-140 143z" />
    <glyph glyph-name="adieresis.school" horiz-adv-x="1320" 
d="M1227 0h-264v98q-152 -127 -342 -127q-116 0 -221 44.5t-180.5 119.5t-120 177.5t-44.5 215.5t44.5 215.5t120 177.5t180.5 119.5t221 44.5q191 0 340 -124v98h266v-1059zM965 528q0 135 -94 228.5t-228 93.5q-131 0 -226 -94t-95 -228q0 -133 95 -228t226 -95
q133 0 227.5 94.5t94.5 228.5zM444 1178q-62 0 -104.5 42t-42.5 105q0 61 42.5 102t104.5 41t103 -41t41 -102q0 -63 -41 -105t-103 -42zM862 1178q-62 0 -103.5 42t-41.5 105q0 61 41.5 102t103.5 41t104 -41t42 -102q0 -63 -42 -105t-104 -42z" />
    <glyph glyph-name="agrave.school" horiz-adv-x="1320" 
d="M1227 0h-264v98q-152 -127 -342 -127q-116 0 -221 44.5t-180.5 119.5t-120 177.5t-44.5 215.5t44.5 215.5t120 177.5t180.5 119.5t221 44.5q191 0 340 -124v98h266v-1059zM965 528q0 135 -94 228.5t-228 93.5q-131 0 -226 -94t-95 -228q0 -133 95 -228t226 -95
q133 0 227.5 94.5t94.5 228.5zM604 1468l225 -270h-256l-262 270h293z" />
    <glyph glyph-name="amacron.school" horiz-adv-x="1320" 
d="M1227 0h-264v98q-152 -127 -342 -127q-116 0 -221 44.5t-180.5 119.5t-120 177.5t-44.5 215.5t44.5 215.5t120 177.5t180.5 119.5t221 44.5q191 0 340 -124v98h266v-1059zM965 528q0 135 -94 228.5t-228 93.5q-131 0 -226 -94t-95 -228q0 -133 95 -228t226 -95
q133 0 227.5 94.5t94.5 228.5zM926 1403v-174h-547v174h547z" />
    <glyph glyph-name="aogonek.school" horiz-adv-x="1320" 
d="M1227 1059v-1059q-162 -104 -162 -217q0 -44 25 -68t67 -24q45 0 82 16l27 -131q-71 -29 -142 -29q-105 0 -162 52.5t-57 134.5q0 72 35.5 135t126.5 131h-104v98q-152 -127 -342 -127q-116 0 -221 44.5t-180.5 119.5t-120 177.5t-44.5 215.5t44.5 215.5t120 177.5
t180.5 119.5t221 44.5q191 0 340 -124v98h266zM965 528q0 135 -94 228.5t-228 93.5q-131 0 -226 -94t-95 -228q0 -133 95 -228t226 -95q133 0 227.5 94.5t94.5 228.5z" />
    <glyph glyph-name="aring.school" horiz-adv-x="1320" 
d="M1227 0h-264v98q-152 -127 -342 -127q-116 0 -221 44.5t-180.5 119.5t-120 177.5t-44.5 215.5t44.5 215.5t120 177.5t180.5 119.5t221 44.5q191 0 340 -124v98h266v-1059zM965 528q0 135 -94 228.5t-228 93.5q-131 0 -226 -94t-95 -228q0 -133 95 -228t226 -95
q133 0 227.5 94.5t94.5 228.5zM653 1161q-99 0 -167 67t-68 165q0 95 68.5 161t166.5 66t167 -66t69 -161q0 -97 -69 -164.5t-167 -67.5zM653 1278q47 0 80 34t33 81q0 44 -33 76t-80 32t-79.5 -31.5t-32.5 -76.5q0 -48 32.5 -81.5t79.5 -33.5z" />
    <glyph glyph-name="atilde.school" horiz-adv-x="1320" 
d="M1227 0h-264v98q-152 -127 -342 -127q-116 0 -221 44.5t-180.5 119.5t-120 177.5t-44.5 215.5t44.5 215.5t120 177.5t180.5 119.5t221 44.5q191 0 340 -124v98h266v-1059zM965 528q0 135 -94 228.5t-228 93.5q-131 0 -226 -94t-95 -228q0 -133 95 -228t226 -95
q133 0 227.5 94.5t94.5 228.5zM512 1448q49 0 141.5 -43t116.5 -43q25 0 42 20.5t28 73.5l168 -37q-57 -229 -217 -229q-50 0 -141 43t-115 43q-52 0 -72 -94l-168 35q29 120 82.5 175.5t134.5 55.5z" />
    <glyph glyph-name="caronSlovak" horiz-adv-x="362" 
d="M59 973l37 461h250l-88 -461h-199z" />
    <glyph glyph-name="uni00200326" horiz-adv-x="505" 
d="M127 -557v98q48 4 81.5 28t33.5 50q0 14 -18.5 28t-41 25.5t-41 37.5t-18.5 61q0 43 35 76.5t84 33.5q62 0 99.5 -47.5t37.5 -128.5q0 -102 -71 -178.5t-181 -83.5z" />
    <glyph glyph-name="colon.alt" 
d="M225 512q66 0 111 -44t45 -110t-45 -109.5t-111 -43.5t-110.5 43.5t-44.5 109.5t44.5 110t110.5 44zM225 1151q66 0 111 -44t45 -110t-45 -109.5t-111 -43.5t-110.5 43.5t-44.5 109.5t44.5 110t110.5 44z" />
    <glyph glyph-name="reversequoteleft" 
d="M367 1032v-125q-139 25 -224.5 127.5t-85.5 241.5q0 104 48 165.5t128 61.5q60 0 104 -42.5t44 -102.5q0 -37 -16 -65t-38.5 -44.5t-45 -29.5t-38.5 -26.5t-16 -29.5q0 -42 40.5 -81.5t99.5 -49.5z" />
    <glyph glyph-name="reversequotedblleft" horiz-adv-x="843" 
d="M367 1032v-125q-139 25 -224.5 127.5t-85.5 241.5q0 104 48 165.5t128 61.5q60 0 104 -42.5t44 -102.5q0 -37 -16 -65t-38.5 -44.5t-45 -29.5t-38.5 -26.5t-16 -29.5q0 -42 40.5 -81.5t99.5 -49.5zM758 1032v-125q-139 25 -224 127.5t-85 241.5q0 104 48 165.5t128 61.5
q60 0 103.5 -42.5t43.5 -102.5q0 -37 -16 -65t-38.5 -44.5t-45 -29.5t-38.5 -26.5t-16 -29.5q0 -42 40.5 -81.5t99.5 -49.5z" />
    <glyph glyph-name="at.cap" horiz-adv-x="1669" 
d="M809 342q-154 0 -261.5 105.5t-107.5 254.5q0 153 107 259t262 106q117 0 205 -70v52h190v-449q0 -45 28.5 -73.5t80.5 -28.5q64 0 103.5 70t39.5 186q0 162 -77 293t-220 206.5t-328 75.5q-125 0 -237.5 -47.5t-192.5 -129t-127 -195t-47 -240.5q0 -169 79 -310
t216 -222t301 -81q235 0 414 152l98 -98q-211 -185 -499 -185q-155 0 -294.5 58.5t-240.5 158t-160 237t-59 290.5t60 290.5t161.5 236.5t243 157.5t297.5 58.5q220 0 394 -93.5t269 -253.5t95 -355q0 -188 -91 -296t-221 -108q-151 0 -225 103q-48 -54 -114.5 -84.5
t-141.5 -30.5zM823 512q78 0 134.5 56t56.5 134q0 81 -56 137t-135 56t-135.5 -56t-56.5 -137q0 -78 57 -134t135 -56z" />
    <glyph glyph-name="dollar.alt" horiz-adv-x="1210" 
d="M702 557l-249 68q-185 50 -274 145.5t-89 247.5q0 157 118.5 263t303.5 124v162h188v-172q169 -32 278 -143t132 -273h-258q-24 105 -96 162t-187 57q-96 0 -156.5 -45t-60.5 -125q0 -57 42.5 -93t125.5 -61l248 -65q191 -51 278 -144t87 -247q0 -158 -116.5 -267.5
t-316.5 -121.5v-162h-188v172q-181 32 -296 145.5t-128 278.5h256q14 -107 91.5 -167t209.5 -60q110 0 168.5 44.5t58.5 120.5q0 106 -170 156z" />
    <glyph glyph-name="NTD" horiz-adv-x="3600" 
d="M2949 563l-55 15q-168 45 -251 132t-83 226q0 147 109.5 244.5t279.5 115.5v146h174v-156q154 -29 255 -132t124 -253h-240q-28 127 -139 174v-315l64 -17q177 -47 256.5 -131t79.5 -225q0 -147 -107.5 -249.5t-292.5 -114.5v-146h-174v156q-167 29 -272 134.5
t-117 258.5h236q15 -137 153 -184v321zM338 0h-236v1319h279l668 -971l-2 971h235v-1319h-278l-668 971zM1393 1098v221h1067v-221h-408v-1098h-254v1098h-405zM2798 946q0 -112 151 -151v299q-69 -13 -110 -51t-41 -97zM3123 528v-303q77 10 119.5 49t42.5 97
q0 55 -43.5 96.5t-118.5 60.5z" />
    <glyph glyph-name=".ttfautohint" horiz-adv-x="720" 
 />
    </font>
</defs>
</svg>
